<svg width="78" height="91" viewBox="0 0 78 91" fill="none" xmlns="http://www.w3.org/2000/svg">
<path d="M7.3374 12.1934C9.38817 8.07122 12.8706 5.46967 17.5275 3.85486C22.2262 2.22552 28.0417 1.6316 34.5824 1.52032C56.4733 1.14787 75.5413 20.6837 75.5413 42.6578V52.4847C75.5413 71.0118 58.2942 84.0719 39.2504 84.0719C19.9369 84.0719 1.78226 71.1976 1.5269 52.4905C1.30742 36.4126 2.36782 22.1827 7.3374 12.1934Z" stroke="white" stroke-width="3"/>
<path d="M29.3166 36.9811C29.3166 35.8607 29.3166 34.7403 29.3166 33.6199C29.3166 30.9829 30.174 28.8891 32.1898 27.1036C34.494 25.0628 39.1162 23.8549 42.1323 24.9677C44.952 26.0079 45.9678 28.1324 46.5886 30.8226C47.1331 33.182 47.3031 35.6785 45.2116 37.263C43.4504 38.5972 41.1153 39.1404 39.8988 41.1229C38.4356 43.5073 38.8796 46.6035 38.8796 49.2764" stroke="white" stroke-width="3" stroke-linecap="round"/>
<path d="M39.8555 54.1553C38.6949 54.1553 37.5135 54.4093 37.5135 55.8684C37.5135 57.3072 39.2434 57.4731 40.3542 57.4731C41.6109 57.4731 42.0832 55.574 41.0698 54.9359C40.2857 54.4422 38.8987 54.3314 38.1966 55.0335C37.2479 55.9822 38.6871 56.5613 39.6494 56.6816C40.8543 56.8322 40.8513 55.8675 39.8555 55.3696C39.0675 54.9756 38.3376 56.3021 39.3675 56.3021C40.3098 56.3021 38.9722 54.1653 38.4893 55.1311" stroke="white" stroke-width="3" stroke-linecap="round"/>
<path d="M29.8122 36.7906C29.8122 34.4712 29.5263 31.9503 30.5854 29.8321C30.7732 29.4565 30.9733 29.1242 31.1748 28.7548C31.3775 28.3831 31.8011 28.2598 32.005 27.8929C32.185 27.5689 32.7643 27.3903 33.0634 27.1577C33.5302 26.7946 34.1385 26.7139 34.654 26.4733C35.1857 26.2252 35.7824 26.082 36.3398 25.9283C36.812 25.798 37.2682 25.9058 37.7404 25.8332C38.565 25.7063 39.4779 25.6247 40.307 25.8142C40.9398 25.9588 41.5309 25.9064 42.1322 26.2071C42.4727 26.3773 42.8202 26.5194 43.1589 26.6888C43.504 26.8613 43.7105 27.1524 44.0081 27.3225C44.4048 27.5492 44.5717 28.0556 44.8446 28.4125C45.2464 28.938 45.5159 29.5699 45.6685 30.2187C45.9649 31.4785 45.8967 32.76 45.8967 34.0529C45.8967 34.6182 46.0457 35.4243 45.8713 35.9668C45.7042 36.4867 45.2193 37.0749 44.8637 37.4751C44.371 38.0293 44.0044 38.5692 43.3617 38.9834C42.5738 39.4911 41.7461 39.9779 41.0802 40.6438C39.3316 42.3924 39.7367 44.7978 39.7367 47.1143C39.7367 47.793 39.8929 48.6083 39.4578 49.1676C39.1241 49.5967 38.0256 49.7062 38.0256 48.9965" stroke="white" stroke-width="3" stroke-linecap="round"/>
</svg>
