<svg width="78" height="91" viewBox="0 0 78 91" fill="none" xmlns="http://www.w3.org/2000/svg">
<path d="M7.3374 12.1934C9.38817 8.07122 12.8706 5.46967 17.5275 3.85486C22.2262 2.22552 28.0417 1.6316 34.5824 1.52032C56.4733 1.14787 75.5413 20.6837 75.5413 42.6578V52.4847C75.5413 71.0118 58.2942 84.0719 39.2504 84.0719C19.9369 84.0719 1.78226 71.1976 1.5269 52.4905C1.30742 36.4126 2.36782 22.1827 7.3374 12.1934Z" stroke="white" stroke-width="3"/>
<path d="M32.1817 49.7274C30.1904 49.7274 27.7918 49.3346 26.2382 50.8882C25.6503 51.4761 26.4599 53.4361 26.9579 53.9064C27.5141 54.4317 28.7464 54.3243 29.4653 54.3243C30.6987 54.3243 32.1817 53.2435 32.1817 52.0259C32.1817 51.4219 32.2799 50.799 31.9727 50.2614C31.8092 49.9752 30.6167 50.1453 30.3011 50.1453" stroke="white" stroke-width="3" stroke-linecap="round"/>
<path d="M31.1369 50.1454C31.1369 44.4152 31.5062 38.5514 30.7655 32.8722C30.598 31.5886 31.1101 32.5246 32.0656 32.8025C33.797 33.3062 35.8287 33.5592 37.6144 33.8473C39.7132 34.1858 41.8063 34.7382 43.8829 35.2054C45.5023 35.5698 47.13 36.1457 48.7933 36.1457C49.4723 36.1457 49.3157 44.3604 49.3157 44.8984C49.3157 48.1797 49.3157 51.461 49.3157 54.7423C49.3157 55.7909 49.4426 56.91 49.1531 57.923C49.1239 58.0254 49.133 59.0901 48.9442 58.7124C48.7944 58.4127 48.8978 57.8695 48.8978 57.54C48.8978 56.7739 49.194 55.2707 48.5727 54.6495C47.691 53.7678 45.5416 54.0283 44.4053 54.1271C42.2649 54.3132 40.1218 55.6832 40.1218 57.923C40.1218 60.5655 43.2406 61.0109 45.2411 61.0109C47.208 61.0109 47.766 60.0966 48.6888 58.7124" stroke="white" stroke-width="3" stroke-linecap="round"/>
<path d="M30.51 33.8472C30.51 32.7468 30.4744 31.6908 30.3475 30.5969C30.3108 30.2804 30.492 29.0687 30.1966 28.8324C29.9256 28.6156 30.0713 27.7035 30.0921 27.3697C30.0932 27.3529 31.7182 27.9438 31.9031 27.9966C35.8872 29.1349 40.285 30.7671 44.4633 30.9219C45.8703 30.974 47.4256 31.0475 48.7932 31.3514C49.7293 31.5594 49.9039 31.9177 49.7219 32.9185C49.2999 35.2398 49.1067 37.3205 49.1067 39.6978" stroke="white" stroke-width="3" stroke-linecap="round"/>
<path d="M30.0921 26.3249C31.8257 26.3249 33.662 26.1444 35.374 26.4526C37.4045 26.8181 39.3467 27.4017 41.3291 27.9501C42.895 28.3832 44.3815 28.9375 45.926 29.4127C46.8735 29.7043 48.1178 30.034 49.1067 30.086C49.6093 30.1125 49.9086 31.6341 49.9425 32.1755C49.9504 32.3019 49.3865 31.6196 49.1995 31.4326C48.7541 30.9871 48.0556 30.3149 47.4351 30.1324C45.9113 29.6843 44.404 29.6536 42.8381 29.4127C39.4695 28.8945 36.491 28.0709 33.2728 26.9982C32.5449 26.7555 31.428 26.3722 30.719 26.3249C29.0482 26.2135 33.9363 27.258 35.5249 27.7875C37.0893 28.309 38.5198 28.8961 40.1218 29.2966C40.4353 29.375 44.0103 30.1411 43.999 30.0396C43.9297 29.4158 39.6293 28.6558 38.9145 28.6233C37.7119 28.5687 36.7238 27.9984 35.7338 27.4161C34.8283 26.8834 37.3819 27.6798 37.6608 27.7875C38.1873 27.9909 39.1701 28.3217 39.5762 28.7278C40.1395 29.2911 38.0082 28.3632 37.3009 27.9965C35.3384 26.9789 33.1887 26.1159 31.0324 26.1159C30.5762 26.1159 30.719 26.6093 30.719 26.9517C30.719 27.1041 30.4695 28.0114 30.3127 27.4625C30.1262 26.8096 30.3011 25.8567 30.3011 25.1757C30.3011 24.9806 29.9655 24.472 30.3475 24.8158C30.5877 25.032 31.1428 25.2002 31.4503 25.2685C32.3269 25.4633 33.582 25.3616 34.3756 25.8025C35.0475 26.1758 35.769 26.2516 36.4651 26.6383C37.31 27.1077 38.423 27.4164 39.3788 27.5902C41.1898 27.9195 42.8958 28.7924 44.7187 29.0529C45.5412 29.1704 46.3939 29.4592 47.2261 29.4592C47.8792 29.4592 49.1204 29.1551 49.304 29.9815C49.5764 31.2075 49.5246 34.9985 49.5246 33.7426C49.5246 32.8171 49.7335 31.921 49.7335 31.0263C49.7335 30.5736 49.7335 30.1208 49.7335 29.6681C49.7335 28.9134 49.5961 29.317 49.1531 28.9948C48.5119 28.5285 47.2004 28.8032 46.4367 28.5769C45.4524 28.2853 44.3892 28.2487 43.4186 27.9501C41.7822 27.4466 40.0461 27.1967 38.4502 26.4874C36.874 25.7869 29.6742 23.437 29.6742 26.5338C29.6742 27.3524 30.0921 28.2198 30.0921 29.0412C30.0921 29.4166 30.0921 29.7919 30.0921 30.1673C30.0921 30.6024 29.8993 29.3136 29.8832 28.8787C29.861 28.2804 29.1072 24.5023 30.0921 24.4443C31.2129 24.3784 33.4812 23.3526 34.5265 24.1889C35.0984 24.6464 36.3008 24.7742 36.9875 25.1176C37.7801 25.5139 38.605 25.784 39.3905 26.2204C41.1172 27.1797 43.1021 27.6392 44.8464 28.4144C45.6822 28.7859 46.3396 29.2279 47.11 29.6681C48.2312 30.3088 47.3215 29.1366 46.9127 28.7278C44.8411 26.6562 41.8737 26.7965 39.2047 26.0115C37.8972 25.6269 36.4346 25.4373 35.2114 24.7578C33.7777 23.9612 36.3176 24.7699 36.8947 24.8622C40.442 25.4298 43.7132 26.3209 47.1216 27.3696C49.3208 28.0463 49.5246 29.6272 49.5246 31.6415C49.5246 34.7999 49.3554 37.8392 49.0951 40.9631C48.8318 44.122 48.4798 47.1538 48.4798 50.3426C48.4798 51.9811 48.0619 53.5314 48.0619 55.1601" stroke="white" stroke-width="3" stroke-linecap="round"/>
<path d="M29.4653 28.6235C29.4653 33.9575 29.6743 39.2946 29.6743 44.6083C29.6743 45.1557 29.8324 49.2496 30.394 49.0891C31.027 48.9083 30.0922 42.258 30.0922 41.416C30.0922 38.7511 29.8832 36.0493 29.8832 33.4294" stroke="white" stroke-width="3" stroke-linecap="round"/>
<path d="M28.6295 50.7724C27.8808 50.7724 26.1571 50.667 25.9248 51.7127C25.7186 52.6406 27.4357 53.2798 28.1071 53.2798C28.7344 53.2798 31.1369 53.6366 31.1369 52.5485C31.1369 51.712 28.5537 51.8171 27.9098 51.8171C27.1303 51.8171 25.2964 52.444 26.9579 52.444C27.7315 52.444 28.623 52.5644 29.2564 52.0261C29.5793 51.7516 29.9608 51.3566 30.3011 51.1439C31.2157 50.5722 28.8867 50.1605 28.8385 50.9813C28.7997 51.6406 30.3767 51.6082 30.928 51.6082" stroke="white" stroke-width="3" stroke-linecap="round"/>
<path d="M46.6433 56.5497C46.1856 56.5497 45.7493 56.8039 45.2878 56.8328C45.2697 56.8339 44.9077 56.818 44.901 56.8447C44.8602 57.0082 45.9435 57.5114 46.0094 57.5424C46.5718 57.8077 47.1834 58.0216 47.7995 57.8016C48.3843 57.5927 49.0915 57.0294 49.1231 56.3504C49.1636 55.479 48.0293 55.1862 47.3609 55.1862C45.9859 55.1862 45.7264 57.4783 46.715 58.1524C47.3535 58.5877 47.4901 56.9699 47.5005 56.6653C47.5125 56.311 47.5097 55.9233 47.1815 55.7045C47.0018 55.5846 46.717 55.5698 46.5715 55.7483C46.0835 56.3473 45.9719 57.4546 46.1409 58.1843C46.2023 58.449 46.6613 59.1413 46.8586 58.5989C47.068 58.0231 47.3234 56.1997 47.1297 56.7809C47.0016 57.1653 47.0353 57.6507 47.0021 58.0488C46.945 58.734 46.9239 59.4186 46.9303 60.106C46.9347 60.5711 47.1165 60.7938 47.1416 60.1897C47.1697 59.5159 47.3952 58.2183 46.8147 57.7458C46.214 57.2568 45.4803 57.588 45.3236 58.3398C45.1675 59.0893 46.7472 58.2189 46.9184 58.0567C48.284 56.763 46.3701 54.7326 44.8891 55.7922C44.2183 56.2721 43.4438 57.148 43.4857 58.0408C43.5267 58.9155 45.1639 59.0409 45.7662 58.9019C46.8556 58.6505 47.1257 57.4329 47.2812 56.4779C47.4437 55.4795 47.1844 54.333 45.9934 54.333C44.9518 54.333 44.1062 54.9995 43.5335 55.8241C43.2244 56.2693 43.2371 57.181 43.5375 57.6262C43.9702 58.2672 44.7935 58.5989 45.5509 58.5989C46.443 58.5989 46.8712 57.9324 47.0021 57.1238C47.3705 54.8483 42.845 55.0695 42.7681 57.1477C42.7104 58.7052 44.1079 60.3831 45.4911 58.9538C46.7516 57.6513 45.164 55.9162 43.8086 55.5849C42.7899 55.3358 40.5479 55.485 41.1574 57.052C41.3628 57.5802 41.6723 58.0685 42.194 58.3438C42.5793 58.5472 42.9896 58.7459 43.4139 58.8461C43.6586 58.9039 44.7511 59.1839 44.8333 58.8461C45.051 57.9508 44.4507 56.7006 43.8525 56.0753C43.4124 55.6151 42.7197 55.3612 42.0903 55.5131C41.2506 55.7158 40.8624 56.6299 40.974 57.383C41.0689 58.0235 41.5571 59.1526 42.4092 58.9019C42.7492 58.802 42.8398 58.1789 42.8398 57.8973C42.8398 57.3593 42.6506 56.7818 42.178 56.4779C41.9657 56.3414 41.9069 56.4131 41.9069 56.6255C41.9069 57.2968 41.9037 57.9578 42.0145 58.6229C42.0182 58.645 42.2314 59.7634 42.4092 59.4521C42.504 59.2863 42.5962 59.1876 42.6285 58.9936C42.6414 58.9163 43.2923 59.4 43.4139 59.4761C43.9307 59.799 44.44 60.1176 45.0485 60.2256C45.4698 60.3003 45.8358 60.3632 46.2685 60.3532C46.569 60.3462 46.871 59.9763 47.0739 59.7791C47.3588 59.502 47.5766 59.3192 47.6839 58.9139C47.8475 58.2955 47.9138 57.626 48.1144 57.0241C48.1863 56.8084 48.2949 56.5598 48.1822 56.3344C48.0925 56.155 48.0335 55.8424 47.8912 56.1271C47.5876 56.7343 47.1579 57.2565 46.9463 57.9132C46.8121 58.3298 46.7488 58.806 46.5715 59.2049C46.413 59.5615 46.0179 60.0661 45.5668 60.0661" stroke="white" stroke-width="3" stroke-linecap="round"/>
<path d="M13.1531 69.952C13.5325 67.2968 16.4399 64.5092 17.9519 62.5779C24.3486 54.4073 31.2315 46.607 38.3574 39.0685C44.799 32.254 51.4391 25.6277 57.9045 18.8391C59.7542 16.8969 61.5262 14.912 63.3856 12.9837C64.255 12.0822 65.1909 12.4333 64.2661 12.8957" stroke="white" stroke-width="3" stroke-linecap="round"/>
</svg>
