<svg width="78" height="92" viewBox="0 0 78 92" fill="none" xmlns="http://www.w3.org/2000/svg">
<path d="M8.16504 13.1256C10.2158 9.00335 13.6983 6.4018 18.3551 4.78699C23.0538 3.15765 28.8694 2.56373 35.4101 2.45245C57.301 2.08 76.3689 21.6159 76.3689 43.5899V53.4169C76.3689 71.9439 59.1219 85.004 40.078 85.004C20.7645 85.004 2.6099 72.1298 2.35453 53.4226C2.13506 37.3447 3.19545 23.1149 8.16504 13.1256Z" stroke="white" stroke-width="3"/>
<path d="M33.0093 50.6595C31.0181 50.6595 28.6195 50.2667 27.0658 51.8204C26.478 52.4082 27.2875 54.3682 27.7855 54.8386C28.3417 55.3638 29.574 55.2565 30.2929 55.2565C31.5263 55.2565 33.0093 54.1756 33.0093 52.958C33.0093 52.354 33.1076 51.7311 32.8004 51.1935C32.6368 50.9073 31.4443 51.0774 31.1287 51.0774" stroke="white" stroke-width="3" stroke-linecap="round"/>
<path d="M31.9646 51.0776C31.9646 45.3474 32.3339 39.4835 31.5931 33.8043C31.4257 32.5207 31.9378 33.4567 32.8932 33.7346C34.6246 34.2383 36.6564 34.4914 38.442 34.7794C40.5409 35.1179 42.6339 35.6703 44.7106 36.1376C46.33 36.5019 47.9576 37.0778 49.6209 37.0778C50.2999 37.0778 50.1433 45.2925 50.1433 45.8306C50.1433 49.1119 50.1433 52.3932 50.1433 55.6745C50.1433 56.7231 50.2702 57.8421 49.9808 58.8552C49.9515 58.9575 49.9607 60.0222 49.7718 59.6445C49.622 59.3449 49.7254 58.8016 49.7254 58.4721C49.7254 57.706 50.0216 56.2029 49.4004 55.5816C48.5187 54.6999 46.3692 54.9604 45.2329 55.0592C43.0925 55.2454 40.9495 56.6154 40.9495 58.8552C40.9495 61.4976 44.0682 61.943 46.0688 61.943C48.0356 61.943 48.5936 61.0288 49.5164 59.6445" stroke="white" stroke-width="3" stroke-linecap="round"/>
<path d="M31.3377 34.7793C31.3377 33.6789 31.302 32.623 31.1752 31.529C31.1385 31.2125 31.3196 30.0008 31.0243 29.7645C30.7532 29.5477 30.8989 28.6357 30.9198 28.3019C30.9208 28.285 32.5458 28.8759 32.7307 28.9287C36.7149 30.0671 41.1126 31.6993 45.291 31.854C46.6979 31.9061 48.2533 31.9796 49.6209 32.2835C50.5569 32.4915 50.7315 32.8498 50.5496 33.8507C50.1275 36.1719 49.9343 38.2526 49.9343 40.63" stroke="white" stroke-width="3" stroke-linecap="round"/>
<path d="M30.9198 27.257C32.6533 27.257 34.4896 27.0766 36.2016 27.3847C38.2321 27.7502 40.1743 28.3339 42.1567 28.8822C43.7226 29.3153 45.2091 29.8696 46.7536 30.3448C47.7012 30.6364 48.9455 30.9661 49.9343 31.0181C50.4369 31.0446 50.7363 32.5662 50.7701 33.1076C50.778 33.2341 50.2142 32.5517 50.0272 32.3647C49.5817 31.9192 48.8832 31.2471 48.2627 31.0646C46.7389 30.6164 45.2316 30.5857 43.6658 30.3448C40.2972 29.8266 37.3186 29.003 34.1005 27.9303C33.3725 27.6877 32.2557 27.3043 31.5466 27.257C29.8758 27.1456 34.7639 28.1901 36.3525 28.7197C37.9169 29.2411 39.3474 29.8283 40.9494 30.2288C41.2629 30.3071 44.8379 31.0733 44.8266 30.9717C44.7573 30.3479 40.4569 29.588 39.7421 29.5555C38.5396 29.5008 37.5514 28.9305 36.5615 28.3482C35.6559 27.8155 38.2095 28.6119 38.4884 28.7197C39.0149 28.9231 39.9977 29.2538 40.4038 29.66C40.9671 30.2233 38.8358 29.2953 38.1286 28.9286C36.166 27.911 34.0164 27.0481 31.8601 27.0481C31.4038 27.0481 31.5466 27.5414 31.5466 27.8839C31.5466 28.0362 31.2972 28.9435 31.1403 28.3946C30.9538 27.7417 31.1287 26.7889 31.1287 26.1078C31.1287 25.9127 30.7932 25.4041 31.1752 25.7479C31.4154 25.9641 31.9704 26.1323 32.278 26.2007C33.1545 26.3954 34.4096 26.2937 35.2033 26.7346C35.8752 27.1079 36.5967 27.1837 37.2928 27.5704C38.1376 28.0398 39.2506 28.3485 40.2065 28.5223C42.0175 28.8516 43.7234 29.7246 45.5463 29.985C46.3688 30.1025 47.2216 30.3913 48.0537 30.3913C48.7068 30.3913 49.948 30.0872 50.1317 30.9137C50.4041 32.1396 50.3522 35.9306 50.3522 34.6748C50.3522 33.7492 50.5612 32.8531 50.5612 31.9584C50.5612 31.5057 50.5612 31.053 50.5612 30.6002C50.5612 29.8455 50.4238 30.2491 49.9807 29.9269C49.3395 29.4606 48.028 29.7353 47.2644 29.509C46.2801 29.2174 45.2168 29.1808 44.2462 28.8822C42.6098 28.3787 40.8737 28.1288 39.2778 27.4195C37.7016 26.719 30.5019 24.3691 30.5019 27.466C30.5019 28.2845 30.9198 29.152 30.9198 29.9734C30.9198 30.3487 30.9198 30.7241 30.9198 31.0994C30.9198 31.5345 30.7269 30.2457 30.7108 29.8109C30.6887 29.2125 29.9349 25.4344 30.9198 25.3765C32.0406 25.3105 34.3088 24.2848 35.3542 25.1211C35.926 25.5785 37.1284 25.7064 37.8152 26.0497C38.6078 26.4461 39.4326 26.7162 40.2181 27.1525C41.9448 28.1118 43.9298 28.5713 45.674 29.3465C46.5099 29.718 47.1673 30.16 47.9377 30.6002C49.0589 31.2409 48.1491 30.0688 47.7403 29.66C45.6687 27.5883 42.7014 27.7286 40.0324 26.9436C38.7249 26.559 37.2622 26.3694 36.0391 25.6899C34.6054 24.8934 37.1453 25.702 37.7223 25.7944C41.2697 26.3619 44.5408 27.253 47.9493 28.3018C50.1484 28.9784 50.3522 30.5593 50.3522 32.5737C50.3522 35.732 50.183 38.7713 49.9227 41.8952C49.6595 45.0541 49.3075 48.0859 49.3075 51.2748C49.3075 52.9133 48.8896 54.4635 48.8896 56.0922" stroke="white" stroke-width="3" stroke-linecap="round"/>
<path d="M30.2929 29.5557C30.2929 34.8896 30.5019 40.2268 30.5019 45.5404C30.5019 46.0878 30.66 50.1817 31.2216 50.0212C31.8546 49.8404 30.9198 43.1901 30.9198 42.3481C30.9198 39.6832 30.7108 36.9815 30.7108 34.3615" stroke="white" stroke-width="3" stroke-linecap="round"/>
<path d="M29.4571 51.7045C28.7084 51.7045 26.9848 51.5991 26.7524 52.6448C26.5462 53.5727 28.2634 54.2119 28.9348 54.2119C29.562 54.2119 31.9646 54.5687 31.9646 53.4806C31.9646 52.6441 29.3814 52.7493 28.7374 52.7493C27.9579 52.7493 26.124 53.3761 27.7855 53.3761C28.5592 53.3761 29.4507 53.4965 30.084 52.9582C30.407 52.6837 30.7884 52.2887 31.1287 52.076C32.0433 51.5044 29.7144 51.0927 29.6661 51.9135C29.6273 52.5727 31.2044 52.5403 31.7556 52.5403" stroke="white" stroke-width="3" stroke-linecap="round"/>
<path d="M47.4709 57.4818C47.0133 57.4818 46.5769 57.7361 46.1154 57.7649C46.0974 57.766 45.7354 57.7501 45.7287 57.7769C45.6878 57.9403 46.7712 58.4435 46.837 58.4746C47.3994 58.7398 48.011 58.9537 48.6271 58.7337C49.2119 58.5249 49.9192 57.9616 49.9507 57.2825C49.9913 56.4111 48.8569 56.1183 48.1886 56.1183C46.8135 56.1183 46.554 58.4105 47.5427 59.0845C48.1811 59.5198 48.3178 57.9021 48.3281 57.5974C48.3401 57.2432 48.3373 56.8554 48.0091 56.6366C47.8294 56.5168 47.5447 56.5019 47.3992 56.6805C46.9111 57.2794 46.7995 58.3867 46.9686 59.1164C47.0299 59.3811 47.489 60.0734 47.6862 59.5311C47.8956 58.9553 48.1511 57.1318 47.9573 57.7131C47.8292 58.0974 47.8629 58.5829 47.8297 58.9809C47.7726 59.6661 47.7516 60.3507 47.758 61.0381C47.7623 61.5032 47.9441 61.7259 47.9693 61.1218C47.9974 60.448 48.2229 59.1504 47.6424 58.6779C47.0416 58.1889 46.3079 58.5201 46.1513 59.2719C45.9951 60.0214 47.5749 59.151 47.746 58.9889C49.1116 57.6951 47.1977 55.6647 45.7167 56.7243C45.0459 57.2042 44.2715 58.0802 44.3133 58.9729C44.3543 59.8476 45.9915 59.9731 46.5938 59.8341C47.6832 59.5827 47.9534 58.365 48.1088 57.4101C48.2714 56.4116 48.012 55.2651 46.8211 55.2651C45.7794 55.2651 44.9338 55.9317 44.3612 56.7562C44.052 57.2014 44.0647 58.1132 44.3652 58.5583C44.7979 59.1993 45.6211 59.5311 46.3785 59.5311C47.2706 59.5311 47.6988 58.8645 47.8297 58.0559C48.1982 55.7804 43.6727 56.0016 43.5957 58.0799C43.538 59.6373 44.9355 61.3152 46.3187 59.8859C47.5792 58.5834 45.9917 56.8483 44.6363 56.517C43.6175 56.268 41.3756 56.4171 41.985 57.9842C42.1904 58.5123 42.5 59.0006 43.0216 59.2759C43.4069 59.4793 43.8172 59.6781 44.2416 59.7783C44.4862 59.836 45.5787 60.116 45.6609 59.7783C45.8787 58.8829 45.2783 57.6328 44.6801 57.0074C44.24 56.5473 43.5474 56.2933 42.9179 56.4452C42.0783 56.6479 41.69 57.562 41.8016 58.3151C41.8965 58.9556 42.3847 60.0847 43.2369 59.8341C43.5768 59.7341 43.6675 59.111 43.6675 58.8294C43.6675 58.2914 43.4783 57.7139 43.0056 57.4101C42.7933 57.2736 42.7345 57.3452 42.7345 57.5576C42.7345 58.2289 42.7313 58.8899 42.8422 59.555C42.8459 59.5772 43.059 60.6955 43.2369 60.3843C43.3317 60.2184 43.4238 60.1198 43.4562 59.9258C43.4691 59.8484 44.12 60.3322 44.2416 60.4082C44.7583 60.7312 45.2676 61.0497 45.8762 61.1577C46.2974 61.2324 46.6635 61.2954 47.0962 61.2853C47.3966 61.2783 47.6987 60.9084 47.9015 60.7112C48.1864 60.4342 48.4042 60.2514 48.5115 59.846C48.6752 59.2276 48.7415 58.5581 48.9421 57.9563C49.014 57.7405 49.1225 57.4919 49.0098 57.2665C48.9201 57.0871 48.8612 56.7745 48.7188 57.0592C48.4152 57.6664 47.9855 58.1886 47.7739 58.8453C47.6397 59.2619 47.5764 59.7382 47.3992 60.1371C47.2407 60.4936 46.8455 60.9982 46.3945 60.9982" stroke="white" stroke-width="3" stroke-linecap="round"/>
</svg>
