<svg width="255" height="134" viewBox="0 0 255 134" fill="none" xmlns="http://www.w3.org/2000/svg">
<path d="M77.2476 94.2721C76.3676 94.4321 75.5876 94.1521 74.9076 93.4321C74.7876 93.3121 74.6676 93.1721 74.5476 93.0121C74.4676 92.8521 74.3676 92.6921 74.2476 92.5321L74.0676 92.0521C73.7476 91.2121 73.4676 90.3721 73.2276 89.5321C73.0276 88.6521 72.8676 87.7721 72.7476 86.8921C72.6276 86.2921 72.5676 85.7321 72.5676 85.2121C72.5276 84.6921 72.4676 84.1721 72.3876 83.6521C72.3476 83.1321 72.3276 82.6121 72.3276 82.0921C72.3276 81.8521 72.3276 81.6121 72.3276 81.3721C72.3276 81.0921 72.2876 80.8121 72.2076 80.5321V80.4121C72.1676 79.9721 72.1276 79.5321 72.0876 79.0921C72.0876 78.6121 72.0476 78.1521 71.9676 77.7121L71.7876 74.9521C71.7476 74.5521 71.7076 74.1721 71.6676 73.8121C71.6276 73.4521 71.5676 73.0721 71.4876 72.6721C71.4876 72.5121 71.4676 72.3721 71.4276 72.2521C71.4276 72.0921 71.4276 71.9321 71.4276 71.7721C71.4276 71.4521 71.4276 71.1321 71.4276 70.8121C71.4276 70.4921 71.4076 70.1921 71.3676 69.9121C71.3276 69.7521 71.3076 69.5321 71.3076 69.2521V67.3321C71.3476 66.7721 71.3276 66.2121 71.2476 65.6521C71.1676 65.0921 71.0876 64.5521 71.0076 64.0321L70.4676 60.7921C70.4276 60.7121 70.4076 60.6121 70.4076 60.4921C70.4076 60.3721 70.4076 60.2721 70.4076 60.1921C70.4076 60.1121 70.4076 60.0121 70.4076 59.8921C70.4076 59.7721 70.3876 59.6721 70.3476 59.5921C70.2276 59.1521 70.2076 58.7521 70.2876 58.3921C70.3676 57.9921 70.4676 57.5921 70.5876 57.1921C70.6276 57.1521 70.6876 57.0521 70.7676 56.8921C70.9676 56.6921 71.1476 56.5121 71.3076 56.3521C71.4676 56.1521 71.6676 55.9921 71.9076 55.8721C72.1476 55.7921 72.3276 55.6121 72.4476 55.3321L72.6276 54.9121C73.0276 54.1921 73.6476 53.6921 74.4876 53.4121C74.5276 53.3721 74.5676 53.3521 74.6076 53.3521C74.6876 53.3521 74.7476 53.3321 74.7876 53.2921C75.3076 53.0521 75.8476 53.0321 76.4076 53.2321C76.6076 53.2721 76.8076 53.3321 77.0076 53.4121C77.2076 53.4521 77.3876 53.5121 77.5476 53.5921C77.8276 53.7121 78.0876 53.8521 78.3276 54.0121C78.5676 54.1321 78.8276 54.2521 79.1076 54.3721C79.8276 54.7321 80.5476 55.0921 81.2676 55.4521C81.9876 55.7721 82.7076 56.0921 83.4276 56.4121L84.9876 57.1321C85.2276 57.2521 85.4676 57.3721 85.7076 57.4921C85.9476 57.5721 86.1876 57.6721 86.4276 57.7921L86.9076 57.9721C87.1476 58.1321 87.3876 58.2921 87.6276 58.4521C87.8676 58.5721 88.1276 58.7121 88.4076 58.8721C88.8076 59.0721 89.1876 59.3321 89.5476 59.6521C89.9076 59.9721 90.2276 60.2921 90.5076 60.6121C90.7476 60.8521 90.8876 61.0721 90.9276 61.2721C91.0476 61.5921 91.1676 61.9321 91.2876 62.2921C91.4076 62.6121 91.4876 62.9321 91.5276 63.2521C91.6076 63.4121 91.6076 63.5921 91.5276 63.7921C91.4076 64.0721 91.2876 64.3721 91.1676 64.6921C91.0876 64.9721 91.0076 65.2721 90.9276 65.5921C90.6476 66.3521 90.2076 67.0321 89.6076 67.6321C89.0876 68.1521 88.5876 68.5721 88.1076 68.8921C87.9076 69.0121 87.7076 69.1521 87.5076 69.3121C87.3076 69.4321 87.1076 69.5521 86.9076 69.6721C86.4676 69.9521 86.0076 70.2121 85.5276 70.4521C85.0476 70.6921 84.5476 70.8921 84.0276 71.0521C83.9076 71.0521 83.8076 71.0921 83.7276 71.1721C83.3276 71.3321 82.9476 71.4921 82.5876 71.6521C82.2276 71.8121 81.8676 71.9921 81.5076 72.1921C81.1476 72.3921 80.9076 72.6721 80.7876 73.0321C80.7876 73.0721 80.7676 73.1121 80.7276 73.1521C80.7276 73.1521 80.7276 73.1921 80.7276 73.2721C80.6876 73.5921 80.5476 73.8721 80.3076 74.1121C80.1076 74.3521 79.9076 74.6121 79.7076 74.8921C79.7076 74.9321 79.6876 74.9521 79.6476 74.9521C79.6076 74.9521 79.5676 74.9721 79.5276 75.0121L78.8076 75.3721C78.6076 75.4521 78.5076 75.6321 78.5076 75.9121C78.5076 76.0721 78.5076 76.2521 78.5076 76.4521C78.5076 76.6121 78.5276 76.7721 78.5676 76.9321L78.8076 78.2521C78.8076 78.4121 78.8076 78.5721 78.8076 78.7321C78.8476 78.8521 78.8476 79.0121 78.8076 79.2121C78.8076 79.5321 78.8076 79.8721 78.8076 80.2321C78.8476 80.5921 78.8876 80.9321 78.9276 81.2521C78.9676 81.4121 78.9876 81.5721 78.9876 81.7321C78.9876 81.8521 78.9876 81.9921 78.9876 82.1521C78.9876 82.3521 78.9876 82.5721 78.9876 82.8121C79.0276 83.0121 79.0676 83.2121 79.1076 83.4121C79.1076 83.4521 79.1076 83.5121 79.1076 83.5921C79.1476 83.6321 79.1676 83.6921 79.1676 83.7721C79.1276 84.2521 79.1276 84.7521 79.1676 85.2721C79.2476 85.7521 79.3076 86.2321 79.3476 86.7121V86.9521C79.3076 87.2721 79.2876 87.6121 79.2876 87.9721C79.3276 88.2921 79.3476 88.6321 79.3476 88.9921C79.3476 89.5121 79.4276 89.9521 79.5876 90.3121C79.7076 90.5521 79.7476 90.7921 79.7076 91.0321C79.6676 91.2721 79.6076 91.5121 79.5276 91.7521C79.4876 91.8721 79.4276 91.9921 79.3476 92.1121C79.3076 92.2721 79.2476 92.4121 79.1676 92.5321C78.8476 93.1721 78.4276 93.6721 77.9076 94.0321C77.6676 94.1921 77.4476 94.2721 77.2476 94.2721ZM77.9676 68.0521L78.3276 67.8721C79.0076 67.4321 79.6876 67.0321 80.3676 66.6721C81.0876 66.3121 81.8076 65.9521 82.5276 65.5921L83.6676 64.9921C83.9076 64.8321 84.1276 64.6921 84.3276 64.5721C84.5676 64.4521 84.7876 64.3121 84.9876 64.1521C85.0276 64.1121 85.0876 64.0121 85.1676 63.8521C85.2076 63.8521 85.2276 63.8321 85.2276 63.7921C85.2276 63.7521 85.2076 63.7321 85.1676 63.7321C85.0476 63.6121 84.9876 63.5521 84.9876 63.5521C84.7876 63.4321 84.5676 63.3121 84.3276 63.1921C84.0876 63.0321 83.8476 62.8921 83.6076 62.7721C83.4076 62.6921 83.1876 62.5921 82.9476 62.4721C82.7076 62.3521 82.4676 62.2321 82.2276 62.1121C81.2676 61.6721 80.3276 61.2321 79.4076 60.7921C79.1276 60.6721 78.8476 60.5721 78.5676 60.4921C78.3276 60.3721 78.0676 60.2521 77.7876 60.1321C77.7876 60.1321 77.7076 60.0921 77.5476 60.0121C77.3876 60.0121 77.3076 60.0721 77.3076 60.1921C77.2676 60.3521 77.2276 60.5121 77.1876 60.6721C77.1476 60.7921 77.1076 60.9321 77.0676 61.0921V63.0721C77.0676 63.4321 77.0676 63.7921 77.0676 64.1521C77.1076 64.5121 77.1676 64.8521 77.2476 65.1721C77.2476 65.4521 77.2676 65.7521 77.3076 66.0721C77.3476 66.3521 77.3876 66.6521 77.4276 66.9721L77.6076 67.9321C77.6876 68.0921 77.8076 68.1321 77.9676 68.0521ZM101.389 92.1121C101.069 92.2321 100.709 92.1921 100.309 91.9921L99.1092 91.4521C98.9092 91.3721 98.7492 91.1921 98.6292 90.9121L98.4492 90.5521C98.3692 90.3521 98.2692 90.2121 98.1492 90.1321C97.9492 89.9721 97.8092 89.6921 97.7292 89.2921C97.6492 88.8921 97.5892 88.4921 97.5492 88.0921C97.5092 87.6921 97.4692 87.2921 97.4292 86.8921C97.3892 86.5721 97.3692 86.2521 97.3692 85.9321C97.3692 85.6121 97.3692 85.3121 97.3692 85.0321L97.4292 84.6121C97.5092 84.4121 97.5492 84.2121 97.5492 84.0121C97.5492 83.8121 97.5492 83.6321 97.5492 83.4721V72.5521C97.6292 71.9921 97.6692 71.4321 97.6692 70.8721C97.6692 70.2721 97.6692 69.6921 97.6692 69.1321C97.7092 68.5721 97.7292 68.0321 97.7292 67.5121C97.7292 66.9521 97.6892 66.4121 97.6092 65.8921C97.5692 65.6921 97.5492 65.4721 97.5492 65.2321C97.5492 64.9921 97.5492 64.7521 97.5492 64.5121C97.5492 64.1521 97.5492 63.7921 97.5492 63.4321C97.5492 63.0721 97.5092 62.7121 97.4292 62.3521V62.1721C97.4292 61.6121 97.3892 61.0721 97.3092 60.5521C97.2692 59.9921 97.2292 59.4521 97.1892 58.9321C97.1492 58.6121 97.1092 58.3121 97.0692 58.0321C97.0292 57.7521 96.9692 57.4721 96.8892 57.1921C96.8492 57.0321 96.8292 56.8721 96.8292 56.7121C96.8292 56.5521 96.8292 56.3921 96.8292 56.2321C96.8292 55.9521 96.8692 55.6921 96.9492 55.4521C97.0292 55.1721 97.1092 54.9121 97.1892 54.6721C97.2292 54.5921 97.3292 54.4721 97.4892 54.3121C97.5692 54.2321 97.6492 54.1721 97.7292 54.1321C97.8092 54.0921 97.8692 54.0521 97.9092 54.0121C98.1492 53.6921 98.4692 53.5521 98.8692 53.5921C98.9492 53.6321 99.0692 53.6121 99.2292 53.5321C99.4292 53.3721 99.6092 53.3521 99.7692 53.4721C99.8892 53.5521 100.089 53.5521 100.369 53.4721C100.489 53.4721 100.589 53.5121 100.669 53.5921C100.789 53.7521 100.949 53.8721 101.149 53.9521C101.349 54.0321 101.489 54.1521 101.569 54.3121C101.689 54.4321 101.809 54.5521 101.929 54.6721C102.009 54.7921 102.089 54.9121 102.169 55.0321C102.289 55.1121 102.349 55.2321 102.349 55.3921C102.389 55.5521 102.389 55.7121 102.349 55.8721C102.349 55.9921 102.349 56.1321 102.349 56.2921C102.349 56.6521 102.369 57.0321 102.409 57.4321C102.489 57.7921 102.549 58.1521 102.589 58.5121C102.669 58.9121 102.729 59.3321 102.769 59.7721C102.809 60.1721 102.849 60.5921 102.889 61.0321V61.6321C102.969 61.9121 103.009 62.1921 103.009 62.4721C103.009 62.7521 103.029 63.0321 103.069 63.3121V63.3721C103.109 63.8521 103.149 64.3321 103.189 64.8121C103.229 65.2921 103.269 65.7721 103.309 66.2521C103.349 66.4521 103.369 66.6721 103.369 66.9121C103.369 67.1121 103.369 67.3121 103.369 67.5121V83.4721C103.369 83.8321 103.389 84.1921 103.429 84.5521C103.509 84.9121 103.569 85.2521 103.609 85.5721C103.609 85.7721 103.729 85.8721 103.969 85.8721C104.329 85.9521 104.669 85.9521 104.989 85.8721C105.429 85.7921 105.849 85.7521 106.249 85.7521C106.689 85.7521 107.129 85.7521 107.569 85.7521C108.009 85.7521 108.429 85.7521 108.829 85.7521C109.269 85.7121 109.689 85.6721 110.089 85.6321H110.749C111.069 85.6721 111.349 85.7121 111.589 85.7521C111.869 85.7521 112.149 85.7521 112.429 85.7521C112.869 85.7521 113.309 85.7721 113.749 85.8121C114.229 85.8121 114.689 85.8321 115.129 85.8721C115.449 85.9121 115.769 85.9321 116.089 85.9321C116.449 85.9321 116.809 85.9321 117.169 85.9321H117.469C118.269 85.8921 118.989 86.0921 119.629 86.5321C119.909 86.6521 120.109 86.8521 120.229 87.1321C120.309 87.2921 120.369 87.4521 120.409 87.6121C120.489 87.7321 120.549 87.8921 120.589 88.0921C120.629 88.2521 120.649 88.4121 120.649 88.5721C120.689 88.6921 120.729 88.8321 120.769 88.9921C120.889 89.3521 120.849 89.7521 120.649 90.1921C120.609 90.3121 120.569 90.4321 120.529 90.5521C120.489 90.6721 120.429 90.7921 120.349 90.9121C120.269 91.0321 120.169 91.1321 120.049 91.2121C120.049 91.2121 119.969 91.2521 119.809 91.3321C119.489 91.6121 119.129 91.7921 118.729 91.8721C118.369 91.9521 117.969 92.0321 117.529 92.1121L116.929 92.0521C116.329 91.8521 115.729 91.7321 115.129 91.6921C114.969 91.6521 114.789 91.6321 114.589 91.6321C114.389 91.5921 114.189 91.5721 113.989 91.5721C113.709 91.5721 113.429 91.5721 113.149 91.5721C112.869 91.5321 112.569 91.4921 112.249 91.4521L111.649 91.3921C111.289 91.4321 110.929 91.4521 110.569 91.4521C110.209 91.4121 109.849 91.4121 109.489 91.4521C109.329 91.4521 109.169 91.4521 109.009 91.4521C108.849 91.4121 108.689 91.3921 108.529 91.3921C108.209 91.3921 107.889 91.3921 107.569 91.3921C107.289 91.3921 106.989 91.4321 106.669 91.5121C106.509 91.5521 106.309 91.5921 106.069 91.6321C105.869 91.6321 105.669 91.6321 105.469 91.6321C104.869 91.6721 104.269 91.7321 103.669 91.8121C103.069 91.8521 102.489 91.9321 101.929 92.0521C101.809 92.0921 101.629 92.1121 101.389 92.1121ZM150.72 96.3121C150.36 96.3121 150.04 96.1721 149.76 95.8921C149.68 95.7721 149.6 95.6521 149.52 95.5321C149.44 95.4121 149.36 95.2921 149.28 95.1721C148.92 94.3321 148.74 93.4521 148.74 92.5321L148.56 91.0921C148.44 90.5321 148.34 89.9721 148.26 89.4121C148.18 88.8521 148.04 88.3121 147.84 87.7921L147.48 86.7721C147.48 86.6921 147.46 86.6121 147.42 86.5321C147.42 86.4521 147.4 86.3721 147.36 86.2921L146.46 83.1121C146.42 83.0321 146.38 82.9321 146.34 82.8121C146.34 82.6921 146.3 82.5921 146.22 82.5121C146.1 82.2721 146 82.0321 145.92 81.7921C145.88 81.5121 145.82 81.2321 145.74 80.9521C145.7 80.7521 145.66 80.5721 145.62 80.4121C145.58 80.2121 145.52 80.0121 145.44 79.8121C145.36 79.5721 145.28 79.4321 145.2 79.3921C145.12 79.3121 144.94 79.3121 144.66 79.3921C144.46 79.4321 144.24 79.4721 144 79.5121C143.8 79.5121 143.6 79.5521 143.4 79.6321C143.24 79.6721 143.04 79.7121 142.8 79.7521C142.6 79.7521 142.4 79.7721 142.2 79.8121L141.36 79.9921C141.16 80.0321 140.94 80.0921 140.7 80.1721C140.5 80.2121 140.3 80.2321 140.1 80.2321L139.02 80.4121C138.7 80.4921 138.36 80.5721 138 80.6521C137.64 80.7321 137.3 80.8121 136.98 80.8921C136.02 81.1321 135.06 81.3121 134.1 81.4321C133.78 81.5121 133.6 81.6521 133.56 81.8521C133.52 81.8521 133.5 81.8721 133.5 81.9121C133.26 82.5521 132.98 83.1921 132.66 83.8321C132.38 84.4321 132.08 85.0521 131.76 85.6921C131.68 85.8521 131.6 86.0121 131.52 86.1721C131.48 86.2921 131.42 86.4321 131.34 86.5921C131.3 86.6721 131.26 86.7721 131.22 86.8921C131.18 86.9721 131.14 87.0521 131.1 87.1321C130.86 87.4121 130.74 87.7521 130.74 88.1521C130.7 88.3921 130.62 88.6321 130.5 88.8721C130.38 89.0721 130.26 89.2721 130.14 89.4721C130.1 89.5921 130.02 89.6521 129.9 89.6521C129.74 89.6921 129.58 89.7521 129.42 89.8321C129.26 89.9121 129.08 89.9921 128.88 90.0721C128.76 90.1121 128.64 90.1121 128.52 90.0721C128.44 90.0321 128.34 89.9921 128.22 89.9521C128.14 89.8721 128.06 89.8321 127.98 89.8321C127.54 89.7921 127.22 89.5321 127.02 89.0521C126.7 88.4121 126.48 87.7721 126.36 87.1321C126.32 86.9721 126.32 86.8321 126.36 86.7121C126.44 86.5921 126.5 86.4721 126.54 86.3521C126.78 86.1921 126.92 86.0121 126.96 85.8121V85.7521C126.96 85.2321 127.06 84.7521 127.26 84.3121C127.5 83.8321 127.7 83.3721 127.86 82.9321C127.94 82.6921 128.04 82.4521 128.16 82.2121C128.28 81.9721 128.4 81.7321 128.52 81.4921C128.68 81.2121 128.8 80.9521 128.88 80.7121C129 80.4321 129.1 80.1521 129.18 79.8721C129.3 79.5521 129.3 79.2521 129.18 78.9721C129.1 78.7321 129.06 78.5121 129.06 78.3121C129.06 78.0721 129.08 77.8321 129.12 77.5921C129.12 77.1521 129.28 76.7721 129.6 76.4521C129.76 76.2521 129.92 76.0921 130.08 75.9721C130.28 75.8121 130.46 75.6521 130.62 75.4921C130.98 75.1321 131.26 74.6521 131.46 74.0521C131.62 73.5321 131.74 73.0121 131.82 72.4921C131.94 71.9321 132.06 71.3921 132.18 70.8721C132.26 70.3521 132.34 69.8521 132.42 69.3721C132.54 68.8521 132.66 68.3521 132.78 67.8721C132.82 67.6721 132.86 67.4921 132.9 67.3321C132.98 67.1321 133.04 66.9521 133.08 66.7921C133.2 66.4721 133.32 66.1721 133.44 65.8921C133.56 65.5721 133.64 65.2521 133.68 64.9321C133.76 64.7721 133.76 64.6321 133.68 64.5121C133.64 64.3121 133.64 64.1321 133.68 63.9721C133.76 63.8121 133.82 63.6521 133.86 63.4921C133.98 63.2121 134.06 62.9321 134.1 62.6521C134.18 62.3721 134.28 62.0921 134.4 61.8121C134.6 61.2921 134.76 60.8721 134.88 60.5521C135.04 60.1921 135.18 59.7921 135.3 59.3521C135.38 59.1121 135.46 58.8921 135.54 58.6921C135.66 58.4521 135.74 58.2121 135.78 57.9721C135.9 57.6121 136 57.2521 136.08 56.8921C136.16 56.4921 136.2 56.1121 136.2 55.7521C136.28 55.4321 136.36 55.2121 136.44 55.0921C136.64 54.6921 136.88 54.3521 137.16 54.0721C137.48 53.7921 137.78 53.5121 138.06 53.2321C138.26 53.1121 138.46 53.0321 138.66 52.9921C138.86 52.9121 139.06 52.9321 139.26 53.0521C139.42 53.1321 139.52 53.1721 139.56 53.1721C139.92 53.1321 140.22 53.2121 140.46 53.4121C140.7 53.6121 140.9 53.8521 141.06 54.1321C141.14 54.2121 141.2 54.3121 141.24 54.4321C141.28 54.5521 141.32 54.6521 141.36 54.7321C141.56 55.0521 141.66 55.3721 141.66 55.6921C141.66 55.8521 141.68 56.0321 141.72 56.2321C141.76 56.3921 141.8 56.5721 141.84 56.7721C141.96 57.0121 142.14 57.1321 142.38 57.1321C142.42 57.0921 142.46 57.0921 142.5 57.1321C142.54 57.1721 142.56 57.2121 142.56 57.2521C142.76 57.4921 142.82 57.7521 142.74 58.0321C142.66 58.3521 142.64 58.6721 142.68 58.9921C142.76 59.2721 142.84 59.5721 142.92 59.8921C143.08 60.2921 143.24 60.6921 143.4 61.0921C143.56 61.4921 143.72 61.8921 143.88 62.2921C144.08 62.7321 144.28 63.1721 144.48 63.6121C144.68 64.0521 144.86 64.4921 145.02 64.9321C145.22 65.4921 145.42 66.0521 145.62 66.6121C145.86 67.1721 146.12 67.7321 146.4 68.2921L146.58 68.9521C146.62 69.1121 146.66 69.2721 146.7 69.4321C146.78 69.5921 146.84 69.7521 146.88 69.9121C146.96 70.0321 147.02 70.1521 147.06 70.2721C147.14 70.3921 147.22 70.4921 147.3 70.5721C147.5 70.8521 147.62 71.1521 147.66 71.4721C147.78 71.8721 147.96 72.2321 148.2 72.5521C148.28 72.6721 148.4 72.7321 148.56 72.7321C149.16 72.6521 149.76 72.5921 150.36 72.5521C150.96 72.4721 151.56 72.3521 152.16 72.1921C152.6 72.0721 153.02 72.0121 153.42 72.0121C154.18 72.0121 154.88 72.2721 155.52 72.7921C156.28 73.3921 156.68 74.1521 156.72 75.0721C156.72 75.2721 156.74 75.4321 156.78 75.5521C156.78 75.8321 156.7 76.0521 156.54 76.2121C156.5 76.3321 156.42 76.4521 156.3 76.5721C156.22 76.6921 156.14 76.8121 156.06 76.9321C155.98 77.0921 155.9 77.2121 155.82 77.2921L155.46 77.5921C155.42 77.6721 155.36 77.7721 155.28 77.8921C155.2 77.9721 155.1 78.0321 154.98 78.0721C154.82 78.1121 154.66 78.1721 154.5 78.2521C154.34 78.2921 154.16 78.3121 153.96 78.3121C153.24 78.3921 152.6 78.3721 152.04 78.2521H151.08C151 78.2521 150.88 78.2921 150.72 78.3721C150.56 78.4521 150.48 78.5521 150.48 78.6721V78.9121C150.6 79.2721 150.68 79.6521 150.72 80.0521C150.8 80.4121 150.92 80.7521 151.08 81.0721C151.08 81.2321 151.12 81.3921 151.2 81.5521C151.4 81.9121 151.56 82.2921 151.68 82.6921C151.8 83.0521 151.9 83.4321 151.98 83.8321C151.98 83.9121 152.02 84.0721 152.1 84.3121C152.22 84.5921 152.32 84.8921 152.4 85.2121C152.48 85.4921 152.54 85.7921 152.58 86.1121C152.58 86.3521 152.64 86.5721 152.76 86.7721C152.92 87.1321 153.04 87.4921 153.12 87.8521C153.2 88.2121 153.26 88.5921 153.3 88.9921C153.34 89.0321 153.36 89.1121 153.36 89.2321C153.36 89.3121 153.38 89.3921 153.42 89.4721C153.62 89.9121 153.76 90.3921 153.84 90.9121C153.92 91.3921 154.02 91.8721 154.14 92.3521C154.22 92.5921 154.26 92.8321 154.26 93.0721C154.3 93.3521 154.32 93.6321 154.32 93.9121C154.32 94.1121 154.26 94.3321 154.14 94.5721C154.02 94.6921 153.96 94.7521 153.96 94.7521C153.72 94.7921 153.58 94.9321 153.54 95.1721L153.36 95.5321C153.28 95.6921 153.16 95.7921 153 95.8321C152.84 95.8321 152.7 95.8921 152.58 96.0121C152.42 96.1721 152.2 96.2521 151.92 96.2521C151.76 96.2521 151.56 96.2521 151.32 96.2521C151.12 96.2521 150.92 96.2721 150.72 96.3121ZM136.26 74.5321C136.5 74.4921 136.74 74.4521 136.98 74.4121C137.26 74.3721 137.56 74.3321 137.88 74.2921C138.08 74.2521 138.34 74.2121 138.66 74.1721C138.98 74.1321 139.28 74.0921 139.56 74.0521C139.84 73.9721 140.12 73.9321 140.4 73.9321C140.68 73.8921 140.96 73.8521 141.24 73.8121C141.48 73.7321 141.72 73.6921 141.96 73.6921C142.2 73.6521 142.44 73.6121 142.68 73.5721C143.04 73.4921 143.18 73.2921 143.1 72.9721C143.06 72.6521 142.98 72.3321 142.86 72.0121C142.78 71.6521 142.6 71.3521 142.32 71.1121C142.24 71.0321 142.2 70.9121 142.2 70.7521V70.5721C142.12 70.2521 142.02 69.9521 141.9 69.6721C141.82 69.3521 141.72 69.0521 141.6 68.7721C141.52 68.4521 141.42 68.1721 141.3 67.9321C141.22 67.6521 141.12 67.3721 141 67.0921L140.28 64.9321C140.16 64.6521 140.04 64.3721 139.92 64.0921C139.84 63.8121 139.76 63.5321 139.68 63.2521L139.5 63.0121H139.32L139.2 63.1921C139 63.7921 138.76 64.3921 138.48 64.9921C138.24 65.5921 138.02 66.2321 137.82 66.9121C137.82 66.9921 137.8 67.0921 137.76 67.2121C137.72 67.3321 137.68 67.4521 137.64 67.5721C137.48 67.9721 137.32 68.4121 137.16 68.8921C137.04 69.3721 136.94 69.8521 136.86 70.3321C136.82 70.6121 136.78 70.8921 136.74 71.1721C136.7 71.4121 136.64 71.6721 136.56 71.9521L136.02 74.2921C135.98 74.3321 136 74.3921 136.08 74.4721C136.16 74.5121 136.22 74.5321 136.26 74.5321ZM173.008 95.8921C172.888 95.9321 172.768 95.9321 172.648 95.8921C172.528 95.8921 172.428 95.8921 172.348 95.8921C171.908 95.7721 171.528 95.5321 171.208 95.1721C170.928 94.8521 170.668 94.4721 170.428 94.0321C170.388 93.8721 170.328 93.7121 170.248 93.5521C170.208 93.3921 170.188 93.2321 170.188 93.0721V92.6521C170.108 92.2121 170.048 91.7721 170.008 91.3321C170.008 90.8921 170.008 90.4521 170.008 90.0121C170.008 89.4521 170.008 88.8921 170.008 88.3321C170.048 87.7721 170.068 87.2121 170.068 86.6521C170.068 86.3721 170.088 86.1521 170.128 85.9921C170.168 85.2321 170.168 84.4321 170.128 83.5921C170.088 83.3921 170.048 83.1721 170.008 82.9321C170.008 82.6921 170.008 82.4521 170.008 82.2121C170.048 81.7721 170.048 81.3321 170.008 80.8921C169.968 80.4521 169.908 80.0121 169.828 79.5721L169.648 78.5521C169.648 78.4721 169.628 78.3921 169.588 78.3121C169.588 78.1921 169.588 78.1121 169.588 78.0721C169.268 76.8721 168.828 75.7921 168.268 74.8321C168.068 74.4721 167.848 74.1121 167.608 73.7521C167.408 73.3521 167.208 72.9521 167.008 72.5521C166.808 72.1521 166.648 71.7521 166.528 71.3521C166.448 70.9121 166.368 70.4921 166.288 70.0921C166.288 70.0121 166.288 69.9121 166.288 69.7921C166.328 69.6721 166.348 69.5521 166.348 69.4321C166.348 69.1921 166.348 68.9521 166.348 68.7121C166.388 68.4321 166.408 68.1521 166.408 67.8721C166.408 67.5921 166.328 67.3721 166.168 67.2121L165.808 66.7321C165.648 66.5321 165.508 66.3321 165.388 66.1321C165.268 65.8921 165.128 65.6721 164.968 65.4721L164.308 64.5721C164.148 64.3321 163.968 64.0921 163.768 63.8521C163.568 63.6121 163.368 63.3521 163.168 63.0721C163.088 62.9921 163.008 62.9121 162.928 62.8321C162.848 62.7121 162.748 62.6321 162.628 62.5921C162.468 62.5521 162.348 62.4521 162.268 62.2921C162.148 62.1721 162.008 61.9921 161.848 61.7521C161.608 61.3521 161.348 60.9521 161.068 60.5521C160.828 60.1121 160.588 59.6921 160.348 59.2921L160.168 59.0521C159.808 58.2921 159.448 57.5321 159.088 56.7721C158.768 55.9721 158.468 55.1921 158.188 54.4321C158.028 54.0721 157.908 53.6721 157.828 53.2321C157.788 52.9921 157.728 52.7521 157.648 52.5121C157.568 52.2721 157.468 52.0521 157.348 51.8521C157.228 51.6521 157.148 51.4521 157.108 51.2521C157.108 51.0521 157.108 50.8521 157.108 50.6521C157.108 50.5321 157.128 50.4121 157.168 50.2921C157.248 50.1721 157.308 50.0521 157.348 49.9321C157.468 49.7321 157.588 49.5521 157.708 49.3921C157.868 49.1921 158.028 49.0121 158.188 48.8521C158.388 48.6521 158.608 48.5521 158.848 48.5521C158.968 48.5521 159.048 48.5321 159.088 48.4921C159.408 48.3321 159.728 48.2921 160.048 48.3721C160.408 48.4521 160.728 48.5521 161.008 48.6721C161.128 48.7121 161.228 48.7921 161.308 48.9121C161.388 48.9921 161.468 49.0721 161.548 49.1521L162.208 50.2321C162.288 50.3121 162.328 50.4121 162.328 50.5321C162.368 50.6521 162.408 50.7721 162.448 50.8921C162.488 50.9721 162.528 51.0721 162.568 51.1921C162.848 51.7921 163.108 52.3921 163.348 52.9921C163.628 53.5521 163.888 54.1321 164.128 54.7321C164.328 55.2521 164.528 55.7721 164.728 56.2921C164.968 56.7721 165.228 57.2521 165.508 57.7321C165.708 58.2121 165.948 58.6721 166.228 59.1121C166.508 59.5521 166.788 59.9921 167.068 60.4321C167.228 60.5921 167.368 60.7721 167.488 60.9721C167.608 61.1721 167.748 61.3721 167.908 61.5721L168.208 61.9321C168.528 62.2521 168.728 62.4121 168.808 62.4121C168.888 62.4121 169.068 62.2321 169.348 61.8721C169.508 61.6721 169.648 61.4721 169.768 61.2721C169.928 61.0321 170.088 60.8321 170.248 60.6721C170.568 60.2721 170.868 59.8921 171.148 59.5321C171.468 59.1721 171.768 58.8121 172.048 58.4521C172.488 57.9321 173.048 57.4121 173.728 56.8921C174.008 56.6521 174.268 56.3921 174.508 56.1121C174.788 55.7521 175.108 55.4921 175.468 55.3321C175.748 55.1721 176.008 55.0121 176.248 54.8521C176.488 54.6521 176.728 54.4721 176.968 54.3121C177.208 54.0721 177.468 53.8721 177.748 53.7121C177.908 53.5921 178.048 53.4721 178.168 53.3521C178.328 53.1921 178.468 53.0321 178.588 52.8721C178.668 52.7521 178.748 52.6521 178.828 52.5721C178.948 52.4521 179.068 52.3521 179.188 52.2721L180.028 51.7321C180.108 51.6921 180.168 51.6721 180.208 51.6721C180.248 51.6321 180.288 51.5921 180.328 51.5521C180.408 51.5521 180.468 51.5521 180.508 51.5521C180.548 51.5121 180.588 51.4921 180.628 51.4921C180.828 51.4121 181.008 51.3521 181.168 51.3121C181.368 51.2721 181.568 51.2521 181.768 51.2521C182.008 51.3721 182.248 51.4921 182.488 51.6121C182.728 51.7321 182.928 51.8921 183.088 52.0921C183.168 52.1321 183.228 52.1521 183.268 52.1521C183.348 52.1521 183.408 52.1721 183.448 52.2121C183.488 52.2521 183.508 52.2921 183.508 52.3321C183.508 52.3721 183.488 52.4521 183.448 52.5721C183.408 52.6521 183.388 52.7121 183.388 52.7521C183.388 52.7921 183.428 52.8121 183.508 52.8121C183.588 52.8121 183.648 52.8321 183.688 52.8721C183.728 52.9121 183.768 52.9321 183.808 52.9321C183.848 52.9321 183.868 52.9721 183.868 53.0521C183.828 53.3721 183.868 53.7121 183.988 54.0721C184.068 54.1921 184.108 54.3121 184.108 54.4321C184.108 54.5521 184.088 54.6721 184.048 54.7921L183.268 56.2321C183.228 56.3921 183.128 56.5121 182.968 56.5921C182.368 57.1121 181.768 57.5121 181.168 57.7921C180.448 58.0321 179.848 58.3521 179.368 58.7521C179.168 58.9121 178.968 59.0721 178.768 59.2321C178.568 59.3521 178.368 59.5121 178.168 59.7121C178.088 59.7921 177.968 59.8721 177.808 59.9521L177.448 60.2521C177.008 60.7321 176.568 61.2121 176.128 61.6921C175.728 62.1321 175.308 62.5921 174.868 63.0721C174.788 63.2321 174.688 63.3121 174.568 63.3121C174.368 63.4321 174.188 63.5921 174.028 63.7921C173.828 64.1121 173.608 64.4321 173.368 64.7521C173.128 65.0321 172.948 65.3721 172.828 65.7721L172.468 66.3721C172.428 66.4121 172.388 66.4721 172.348 66.5521C172.308 66.5921 172.268 66.6521 172.228 66.7321C172.068 67.0121 172.048 67.3121 172.168 67.6321C172.248 67.7121 172.308 67.8121 172.348 67.9321C172.428 68.0521 172.488 68.1721 172.528 68.2921C172.648 68.4921 172.628 68.6921 172.468 68.8921C172.388 68.9321 172.348 69.0321 172.348 69.1921C172.428 69.3521 172.468 69.4721 172.468 69.5521C172.548 69.7921 172.528 70.0121 172.408 70.2121C172.328 70.3721 172.288 70.4721 172.288 70.5121C172.248 70.7521 172.268 70.9721 172.348 71.1721C172.428 71.3321 172.508 71.5321 172.588 71.7721C172.708 71.9721 172.848 72.1721 173.008 72.3721C173.208 72.7721 173.408 73.1521 173.608 73.5121C173.808 73.8721 173.988 74.2521 174.148 74.6521L174.868 76.9921C174.948 77.3521 175.008 77.7321 175.048 78.1321C175.088 78.4921 175.128 78.8521 175.168 79.2121C175.208 79.4521 175.248 79.6921 175.288 79.9321C175.328 80.1321 175.328 80.3521 175.288 80.5921C175.368 81.4721 175.388 82.3521 175.348 83.2321C175.348 84.0721 175.348 84.9321 175.348 85.8121C175.348 85.8921 175.328 85.9721 175.288 86.0521C175.248 86.4921 175.228 86.9521 175.228 87.4321C175.228 87.9121 175.208 88.3721 175.168 88.8121C175.168 89.0921 175.168 89.3721 175.168 89.6521C175.208 89.9321 175.228 90.2321 175.228 90.5521C175.228 90.6721 175.248 90.7521 175.288 90.7921C175.368 90.9921 175.428 91.2121 175.468 91.4521C175.508 91.6521 175.548 91.8521 175.588 92.0521C175.628 92.2121 175.648 92.3521 175.648 92.4721C175.648 92.6321 175.608 92.7921 175.528 92.9521C175.408 93.2321 175.408 93.5321 175.528 93.8521C175.528 93.8921 175.468 93.9521 175.348 94.0321C175.268 94.0321 175.188 94.0521 175.108 94.0921C175.068 94.0921 175.008 94.1321 174.928 94.2121C174.928 94.2921 174.908 94.3521 174.868 94.3921C174.828 94.5921 174.668 94.8321 174.388 95.1121C174.228 95.3121 174.008 95.4721 173.728 95.5921C173.488 95.7121 173.248 95.8121 173.008 95.8921Z" fill="white"/>
<path d="M20.8266 18.0512C26.9104 12.6195 36.7618 8.83298 49.6281 6.28085C62.4542 3.73672 78.072 2.45638 95.5019 1.88819C117.159 1.18221 141.468 1.57664 166.563 1.98382C181.909 2.23281 197.548 2.48657 213.054 2.49637C235.041 2.51026 253.328 20.0917 253.328 42.0035V89.0806C253.328 111.83 233.692 129.682 210.965 127.985C185.789 126.105 154.399 124.217 129.828 124.217C104.346 124.217 71.5294 126.247 45.9145 128.194C24.1461 129.848 4.3022 113.585 2.48354 91.9008C0.0158538 62.4789 0.889039 35.8514 20.8266 18.0512Z" stroke="white" stroke-width="3"/>
</svg>
