<svg width="78" height="91" viewBox="0 0 78 91" fill="none" xmlns="http://www.w3.org/2000/svg">
<path d="M7.3374 12.1934C9.38817 8.07122 12.8706 5.46967 17.5275 3.85486C22.2262 2.22552 28.0417 1.6316 34.5824 1.52032C56.4733 1.14787 75.5413 20.6837 75.5413 42.6578V52.4847C75.5413 71.0118 58.2942 84.0719 39.2504 84.0719C19.9369 84.0719 1.78226 71.1976 1.5269 52.4905C1.30742 36.4126 2.36782 22.1827 7.3374 12.1934Z" stroke="white" stroke-width="3"/>
<path d="M29.7669 49.5597C29.7669 50.3009 29.3938 51.9769 30.1657 52.3926C30.8405 52.756 33.2957 53.2583 33.7275 52.4201C34.8031 50.3321 31.3779 48.7165 30.812 50.3573C30.6383 50.8613 29.8132 53.1636 30.4132 53.6303C31.558 54.5207 31.5108 51.3408 31.4996 50.8524C31.4899 50.4236 30.2451 48.6904 30.0282 49.4497C29.7195 50.5302 30.2516 51.5085 31.2521 51.8975C31.7416 52.0879 33.4341 52.3656 33.4799 51.54C33.5137 50.9327 33.5794 50.5309 33.1086 50.1648C31.4353 48.8633 30.0144 50.1884 30.0144 51.9113C30.0144 54.3273 33.4799 53.7922 33.4799 51.54C33.4799 50.0755 33.5025 48.9406 31.8572 48.432C30.6691 48.0648 28.6356 47.8965 28.2817 49.3122" stroke="white" stroke-width="3" stroke-linecap="round"/>
<path d="M32.8163 37.1604C34.6 37.1604 36.8076 36.7346 38.5097 37.2704C39.992 37.7371 40.8887 39.3332 41.5351 40.6259C42.5467 42.649 43.4604 44.5122 43.4604 46.8143" stroke="white" stroke-width="3" stroke-linecap="round"/>
<path d="M35.8163 25.2951C36.6063 24.8437 37.8448 25.0384 38.7043 25.0613C41.2952 25.1304 43.8836 25.6611 46.2679 26.6978C50.0997 28.3638 52.0469 31.9575 53.3914 35.7466C54.5633 39.0492 55.3717 42.5761 55.3717 46.0881" stroke="white" stroke-width="3" stroke-linecap="round"/>
<path d="M27.6273 48.7823C27.6273 50.5511 26.8779 52.1737 26.2931 53.8111C26.1122 54.3177 25.9574 54.9025 25.6004 55.2992C25.4963 55.4149 24.882 55.9023 24.882 56.0561C24.882 56.5284 34.115 55.9434 34.7343 55.8124C34.9774 55.7609 39.1311 54.7824 38.4802 54.3756C38.004 54.0779 37.7876 53.3581 37.5053 52.8875C36.8594 51.8111 36.1256 50.7118 35.2474 49.8086C34.1409 48.6705 33.0563 47.5874 31.5528 47.0505C30.8036 46.7829 29.8198 46.7524 29.0256 46.6913C28.5701 46.6562 26.7929 45.8476 26.524 46.0627C26.3068 46.2365 26.7036 47.8091 26.7036 48.1409C26.7036 49.1858 26.637 50.0844 26.3572 51.0915C26.1277 51.9178 25.1129 53.4147 25.1129 54.196C25.1129 54.3851 32.3389 54.4454 33.2205 54.2729C33.5572 54.2071 35.0165 53.9032 35.0165 53.4006C35.0165 52.2787 32.442 50.8687 31.5528 50.3987C30.6605 49.9271 29.1666 49.3426 28.5509 48.5001C28.1639 47.9704 27.8867 47.318 27.499 46.8195C26.7709 45.8834 26.0412 45.5938 24.9846 45.2416C24.1397 44.96 24.3945 46.17 24.3945 46.7041C24.3945 47.824 24.4904 48.9569 24.1636 50.0395C23.7284 51.4809 23.3448 52.9861 23.0218 54.4397C22.921 54.8933 23.1733 56.9976 23.7017 55.9406" stroke="white" stroke-width="3" stroke-linecap="round"/>
<path d="M30.8959 47.2816C30.8959 45.9684 30.7488 44.6845 32.1661 44.0545C33.9386 43.2667 35.4402 44.0419 35.5325 45.9804C35.6337 48.1057 34.5628 49.7864 32.7598 50.8959C31.7279 51.5309 30.2112 51.5609 29.6051 50.3486C28.6721 48.4827 30.275 46.5394 31.6601 45.4022C31.9897 45.1315 32.4492 44.7101 32.8786 45.0097C33.4691 45.4217 33.8932 45.8987 33.9835 46.6104C34.0548 47.1714 33.4865 48.5441 32.6824 48.1903C32.2662 48.0072 32.6391 46.3907 33.0335 46.2593" stroke="white" stroke-width="3" stroke-linecap="round"/>
</svg>
