<svg width="78" height="91" viewBox="0 0 78 91" fill="none" xmlns="http://www.w3.org/2000/svg">
<path d="M7.50977 12.2613C9.56053 8.13909 13.043 5.53754 17.6998 3.92273C22.3985 2.29339 28.2141 1.69947 34.7548 1.58819C56.6457 1.21574 75.7136 20.7516 75.7136 42.7257V52.5526C75.7136 71.0797 58.4666 84.1397 39.4228 84.1397C20.1093 84.1397 1.95462 71.2655 1.69926 52.5584C1.47979 36.4804 2.54018 22.2506 7.50977 12.2613Z" stroke="white" stroke-width="3"/>
<path d="M29.9393 49.6276C29.9393 50.3687 29.5661 52.0448 30.3381 52.4605C31.0129 52.8238 33.468 53.3262 33.8998 52.488C34.9755 50.3999 31.5502 48.7844 30.9844 50.4252C30.8106 50.9291 29.9856 53.2315 30.5856 53.6982C31.7304 54.5885 31.6831 51.4087 31.672 50.9203C31.6623 50.4914 30.4175 48.7583 30.2005 49.5176C29.8918 50.598 30.424 51.5763 31.4245 51.9654C31.914 52.1558 33.6064 52.4335 33.6523 51.6079C33.686 51.0005 33.7518 50.5988 33.281 50.2327C31.6077 48.9312 30.1868 50.2562 30.1868 51.9792C30.1868 54.3952 33.6523 53.8601 33.6523 51.6079C33.6523 50.1433 33.6748 49.0084 32.0296 48.4999C30.8414 48.1327 28.808 47.9643 28.454 49.38" stroke="white" stroke-width="3" stroke-linecap="round"/>
<path d="M32.9887 37.2283C34.7724 37.2283 36.98 36.8025 38.682 37.3383C40.1644 37.805 41.0611 39.401 41.7075 40.6938C42.719 42.7169 43.6328 44.58 43.6328 46.8822" stroke="white" stroke-width="3" stroke-linecap="round"/>
<path d="M35.9887 25.3629C36.7786 24.9116 38.0171 25.1062 38.8766 25.1291C41.4676 25.1982 44.056 25.729 46.4402 26.7656C50.272 28.4316 52.2193 32.0253 53.5638 35.8145C54.7357 39.1171 55.5441 42.644 55.5441 46.156" stroke="white" stroke-width="3" stroke-linecap="round"/>
<path d="M27.7996 48.8502C27.7996 50.619 27.0503 52.2415 26.4655 53.879C26.2845 54.3856 26.1298 54.9703 25.7727 55.3671C25.6686 55.4828 25.0543 55.9702 25.0543 56.124C25.0543 56.5963 34.2873 56.0112 34.9066 55.8802C35.1497 55.8288 39.3035 54.8502 38.6526 54.4434C38.1764 54.1458 37.96 53.4259 37.6776 52.9553C37.0318 51.8789 36.2979 50.7797 35.4198 49.8765C34.3133 48.7384 33.2287 47.6553 31.7252 47.1183C30.9759 46.8507 29.9922 46.8202 29.1979 46.7591C28.7425 46.7241 26.9652 45.9155 26.6964 46.1305C26.4791 46.3043 26.876 47.8769 26.876 48.2088C26.876 49.2537 26.8093 50.1523 26.5296 51.1593C26.3001 51.9857 25.2852 53.4826 25.2852 54.2638C25.2852 54.453 32.5113 54.5133 33.3929 54.3408C33.7296 54.2749 35.1889 53.971 35.1889 53.4685C35.1889 52.3466 32.6143 50.9366 31.7252 50.4666C30.8328 49.9949 29.339 49.4105 28.7233 48.568C28.3362 48.0383 28.0591 47.3859 27.6713 46.8874C26.9432 45.9513 26.2136 45.6617 25.1569 45.3095C24.312 45.0279 24.5668 46.2379 24.5668 46.772C24.5668 47.8919 24.6627 49.0248 24.3359 50.1074C23.9008 51.5487 23.5172 53.0539 23.1942 54.5076C23.0934 54.9611 23.3456 57.0654 23.8741 56.0085" stroke="white" stroke-width="3" stroke-linecap="round"/>
<path d="M31.0683 47.3495C31.0683 46.0363 30.9211 44.7523 32.3384 44.1224C34.111 43.3346 35.6126 44.1098 35.7049 46.0483C35.8061 48.1735 34.7352 49.8542 32.9322 50.9638C31.9003 51.5988 30.3836 51.6288 29.7774 50.4164C28.8445 48.5506 30.4473 46.6073 31.8324 45.47C32.1621 45.1994 32.6215 44.778 33.051 45.0776C33.6415 45.4896 34.0655 45.9666 34.1559 46.6782C34.2271 47.2393 33.6589 48.612 32.8548 48.2582C32.4386 48.0751 32.8115 46.4586 33.2059 46.3271" stroke="white" stroke-width="3" stroke-linecap="round"/>
<path d="M17 73.5285C17.3793 70.8732 20.2867 68.0856 21.7987 66.1543C28.1954 57.9837 35.0783 50.1835 42.2043 42.6449C48.6459 35.8305 55.286 29.2041 61.7514 22.4155C63.6011 20.4733 65.373 18.4885 67.2325 16.5602C68.1019 15.6586 69.0378 16.0097 68.113 16.4721" stroke="white" stroke-width="3" stroke-linecap="round"/>
</svg>
