<svg width="557" height="78" viewBox="0 0 557 78" fill="none" xmlns="http://www.w3.org/2000/svg">
<path d="M9.3 72C8.03333 72.1333 7 71.7333 6.2 70.8C5.8 70.4 5.43333 69.9667 5.1 69.5C4.76667 69.0333 4.5 68.5333 4.3 68C3.96667 67.0667 3.66667 66.1333 3.4 65.2C3.13333 64.2 2.9 63.2333 2.7 62.3C2.5 61.5667 2.4 60.8667 2.4 60.2C2.33333 59.4667 2.23333 58.7667 2.1 58.1C2.03333 57.3667 2 56.6333 2 55.9C2 55.5 2 55.1 2 54.7C2 54.2333 1.96667 53.8 1.9 53.4C1.83333 53.1333 1.8 52.9 1.8 52.7C1.8 52.5 1.8 52.2667 1.8 52C1.8 51.0667 1.8 50.1333 1.8 49.2C1.8 48.2 1.76667 47.2333 1.7 46.3C1.7 45.7667 1.66667 45.3 1.6 44.9C1.53333 44.4333 1.4 43.9667 1.2 43.5C0.933334 42.7667 0.9 41.9667 1.1 41.1C1.1 40.9 1.13333 40.7667 1.2 40.7C1.33333 40.2333 1.4 39.7667 1.4 39.3C1.46667 38.8333 1.46667 38.3667 1.4 37.9C1.33333 37.5667 1.3 37.2333 1.3 36.9C1.3 36.5667 1.3 36.2667 1.3 36C1.23333 35.2667 1.2 34.5333 1.2 33.8C1.26667 33 1.33333 32.2333 1.4 31.5C1.46667 31.3 1.5 31.1 1.5 30.9C1.5 30.7 1.5 30.5 1.5 30.3C1.43333 29.5667 1.43333 28.8667 1.5 28.2C1.63333 27.5333 1.73333 26.8667 1.8 26.2C1.93333 25.4 2.06667 24.6333 2.2 23.9C2.33333 23.1 2.5 22.3 2.7 21.5C2.83333 21.1667 2.9 20.8 2.9 20.4C2.9 20 2.9 19.6 2.9 19.2C2.9 18.8667 2.86667 18.5333 2.8 18.2C2.8 17.8667 2.8 17.5667 2.8 17.3C2.8 17.1 2.8 16.9 2.8 16.7C2.8 16.5 2.83333 16.3 2.9 16.1C2.96667 15.9 3 15.7 3 15.5C3 15.3 3.03333 15.1667 3.1 15.1C3.3 14.8333 3.46667 14.6 3.6 14.4C3.73333 14.1333 3.93333 13.9 4.2 13.7C4.53333 13.5 4.83333 13.3 5.1 13.1C5.43333 12.9 5.73333 12.7333 6 12.6C6.33333 12.4667 6.6 12.3 6.8 12.1C7.06667 11.7667 7.33333 11.4667 7.6 11.2C7.93333 10.8667 8.2 10.5 8.4 10.1C8.73333 9.76666 9.06667 9.4 9.4 9C9.8 8.53333 10.2333 8.16666 10.7 7.89999C10.8333 7.83333 11.0333 7.66666 11.3 7.4C12.1 6.66666 13.0333 6.2 14.1 6C14.3 5.93333 14.4667 5.9 14.6 5.9C14.8 5.83333 15 5.8 15.2 5.8L15.9 5.5C16.4333 5.3 16.9 5.4 17.3 5.8C17.4333 6 17.6 6.19999 17.8 6.4C18.0667 6.53333 18.3 6.66667 18.5 6.8C19.0333 7.26667 19.5333 7.76667 20 8.3C20.5333 8.83333 21 9.43333 21.4 10.1C22.0667 11.1667 22.6333 12.2333 23.1 13.3C23.6333 14.3667 24.1333 15.4667 24.6 16.6L26.4 20.9C26.4667 21.3 26.6333 21.6667 26.9 22C27.4333 23 27.8333 24.0333 28.1 25.1C28.3667 26.1 28.6333 27.1333 28.9 28.2C28.9667 28.3333 29 28.4667 29 28.6C29.0667 28.7333 29.1 28.8667 29.1 29C29.2333 29.5333 29.3333 30.1 29.4 30.7C29.5333 31.2333 29.5667 31.7667 29.5 32.3C29.5667 32.9 29.5333 33.5 29.4 34.1C29.3333 34.6333 29.2333 35.1667 29.1 35.7C28.9 36.3667 28.6667 37 28.4 37.6C28.1333 38.1333 27.8333 38.7 27.5 39.3C27.3667 39.7 27.1333 40.0667 26.8 40.4C26.4667 40.7333 26.1333 41.0333 25.8 41.3C25.2667 41.5667 24.7333 41.9667 24.2 42.5C24.0667 42.6333 23.9 42.7333 23.7 42.8C23.5667 42.8667 23.4333 42.9667 23.3 43.1C22.8333 43.3 22.3333 43.5333 21.8 43.8C21.2667 44 20.7333 44.2 20.2 44.4C20.1333 44.4 20.1 44.4667 20.1 44.6C20.1 44.6667 20.1333 44.7333 20.2 44.8L22.9 46.7C23.2333 46.9 23.5333 47.1 23.8 47.3C24.0667 47.4333 24.3333 47.6 24.6 47.8L25.2 48.1C26 48.5667 26.8 49.0667 27.6 49.6C28.4 50.1333 29.1667 50.6667 29.9 51.2C31.3 52.0667 32.7 52.9667 34.1 53.9C35.5 54.7667 36.8333 55.7333 38.1 56.8C39.2333 57.6667 40.2333 58.6667 41.1 59.8C41.3 60 41.5 60.2333 41.7 60.5C41.9 60.7 42.1333 60.8667 42.4 61L42.7 61.3C43.7667 62.2333 44.3667 63.5 44.5 65.1C44.5 65.3 44.4667 65.5 44.4 65.7C44.4 65.9 44.4 66.1 44.4 66.3C44.4 66.7 44.2667 67.0333 44 67.3C43.7333 67.4333 43.6 67.6 43.6 67.8C43.4 68.2667 43.1 68.6 42.7 68.8C42.3667 68.9333 42.0333 69.1333 41.7 69.4C41.5667 69.4667 41.3333 69.5 41 69.5C40.6 69.4333 40.1667 69.3667 39.7 69.3C39.3 69.2333 38.9 69.2 38.5 69.2C37.9667 69.2 37.4 68.9667 36.8 68.5C36.4 68.1667 36.0333 67.8667 35.7 67.6C35.3667 67.2667 35.0333 66.8667 34.7 66.4C33.8333 65.2 32.7 64.1 31.3 63.1C30.6333 62.5667 30 62.0667 29.4 61.6C28.8 61.1333 28.1333 60.7 27.4 60.3C26.9333 60.0333 26.4667 59.7667 26 59.5C25.6 59.1667 25.1333 58.8667 24.6 58.6C22.9333 57.4667 21.2333 56.3667 19.5 55.3C17.7667 54.1667 16.0333 53.0333 14.3 51.9C14.0333 51.7 13.7333 51.5 13.4 51.3C13.0667 51.1 12.7333 50.9 12.4 50.7C12.2667 50.5667 12.0667 50.4333 11.8 50.3C11.5333 50.3 11.4 50.4 11.4 50.6C11.4 50.6667 11.3667 50.7333 11.3 50.8C11.3 50.8 11.3 50.8333 11.3 50.9C11.3 51.1 11.3 51.3 11.3 51.5C11.3 51.7 11.3333 51.9 11.4 52.1C11.4667 52.6333 11.5 53.1667 11.5 53.7C11.5 54.1667 11.5 54.6667 11.5 55.2C11.5 55.6 11.5 56 11.5 56.4C11.5667 56.7333 11.6333 57.1 11.7 57.5C11.7 57.7 11.7 57.9333 11.7 58.2C11.7667 58.4 11.8 58.6 11.8 58.8C11.7333 59.4 11.7667 60 11.9 60.6C12.0333 61.2 12.1333 61.8 12.2 62.4L12.8 65C12.8667 65.2667 12.9333 65.5667 13 65.9C13.0667 66.1667 13.1333 66.4667 13.2 66.8C13.2667 67.0667 13.2667 67.3333 13.2 67.6C13.2 67.8 13.1667 68.0333 13.1 68.3C13.1 68.3667 13.0333 68.4667 12.9 68.6C12.5667 68.6667 12.3333 68.9 12.2 69.3C12 69.7667 11.7 70.1667 11.3 70.5C10.9667 70.9 10.6 71.2667 10.2 71.6C10.1333 71.6667 10 71.7333 9.8 71.8C9.6 71.8667 9.43333 71.9333 9.3 72ZM13.2 37H13.4C14.1333 36.8667 14.8667 36.7333 15.6 36.6C16.4 36.4 17.1667 36.1667 17.9 35.9C18.6333 35.7 19.2667 35.3333 19.8 34.8C20.2667 34.3333 20.5 33.8 20.5 33.2C20.5667 32.7333 20.5667 32.3 20.5 31.9C20.5 31.4333 20.4333 30.9667 20.3 30.5C20.0333 29.3 19.7333 28.1333 19.4 27C19.0667 25.8 18.6667 24.6667 18.2 23.6L17.3 21.2C17.1 20.5333 16.8667 19.9 16.6 19.3C16.3333 18.6333 16.0333 18 15.7 17.4C15.6333 17.2667 15.5667 17.1333 15.5 17C15.4333 16.8 15.3667 16.6333 15.3 16.5L14.9 16.1C14.7 15.8333 14.4667 15.8333 14.2 16.1C14.1333 16.1 14.0333 16.1667 13.9 16.3C13.4333 16.9 13 17.5333 12.6 18.2C12.2667 18.8667 12.0667 19.6 12 20.4C11.9333 20.6667 11.8667 20.9333 11.8 21.2C11.8 21.4667 11.8 21.7667 11.8 22.1V26.4C11.7333 27.3333 11.7 28.3 11.7 29.3C11.7667 30.3 11.7333 31.2667 11.6 32.2C11.5333 32.4 11.5 32.6 11.5 32.8C11.5667 33 11.6 33.2 11.6 33.4C11.6667 33.8 11.7 34.2 11.7 34.6C11.7 34.9333 11.7 35.3 11.7 35.7C11.7 36.3667 11.7667 36.7667 11.9 36.9C12.1 37.0333 12.5333 37.0667 13.2 37ZM60.3672 71C59.9672 71 59.7005 70.9667 59.5672 70.9C59.3005 70.7667 59.0672 70.6667 58.8672 70.6C58.6672 70.5333 58.4672 70.4667 58.2672 70.4C58.0672 70.2667 57.8672 70.1333 57.6672 70C57.5339 69.8 57.4005 69.6 57.2672 69.4C57.1339 69.2667 57.0005 69.2 56.8672 69.2C56.4672 69.2 56.2672 69 56.2672 68.6C56.2005 68.2 56.1339 67.8 56.0672 67.4C56.0005 67 55.9339 66.6 55.8672 66.2C55.8005 65.6 55.7339 65 55.6672 64.4C55.6672 63.8 55.6005 63.2333 55.4672 62.7V61.8C55.4672 61.5333 55.4339 61.3 55.3672 61.1C55.3672 60.9 55.3672 60.6667 55.3672 60.4C55.2339 60.0667 55.2339 59.8 55.3672 59.6C55.5005 58.4 55.5005 57.2 55.3672 56C55.3005 55.6667 55.2672 55.3333 55.2672 55C55.2672 54.6667 55.2339 54.3333 55.1672 54C55.1672 53.3333 55.1672 52.6667 55.1672 52C55.1672 51.2667 55.1005 50.5667 54.9672 49.9V48.3C54.9672 47.7667 54.9339 47.2667 54.8672 46.8C54.8672 46.3333 54.8339 45.8667 54.7672 45.4C54.7005 44.8 54.6339 44.2 54.5672 43.6C54.5672 43 54.5339 42.4 54.4672 41.8C54.4005 41.6667 54.3672 41.4333 54.3672 41.1C54.3005 40.7667 54.2339 40.4333 54.1672 40.1C54.1672 39.7 54.1672 39.3333 54.1672 39L53.8672 34C53.8005 33.4667 53.7339 32.9667 53.6672 32.5C53.6672 31.9667 53.6672 31.4667 53.6672 31C53.6005 30.2 53.5339 29.4 53.4672 28.6C53.4005 27.8 53.3339 27.0333 53.2672 26.3C53.2672 26.1667 53.2339 26.0333 53.1672 25.9C53.1672 25.7667 53.1672 25.6667 53.1672 25.6C53.1672 24.8 53.1339 24 53.0672 23.2C53.0005 22.4 52.9339 21.5667 52.8672 20.7L52.5672 17.9C52.3672 16.8333 52.3339 15.6667 52.4672 14.4C52.4672 13.8 52.7005 13.3 53.1672 12.9C53.3005 12.7667 53.4005 12.7 53.4672 12.7C53.5339 12.6333 53.6005 12.5667 53.6672 12.5C54.0005 12.4333 54.1672 12.2 54.1672 11.8C54.1672 11.6667 54.3005 11.6 54.5672 11.6H55.0672C55.1339 11.6 55.1672 11.6 55.1672 11.6C55.2339 11.5333 55.3005 11.5 55.3672 11.5C55.5005 11.4333 55.6005 11.3667 55.6672 11.3C55.8005 11.1667 55.9005 11.1 55.9672 11.1C56.1005 11.1 56.2339 11.1333 56.3672 11.2C56.5005 11.2 56.6339 11.2333 56.7672 11.3C56.9005 11.3 57.0005 11.2667 57.0672 11.2C57.4005 11.1333 57.7339 11.1667 58.0672 11.3C58.4672 11.3667 58.8005 11.4667 59.0672 11.6C59.4672 11.6667 59.7672 11.9333 59.9672 12.4C60.1672 13 60.3339 13.6 60.4672 14.2C60.6672 14.7333 60.8005 15.3 60.8672 15.9V16.7C61.0005 17.1667 61.0672 17.6667 61.0672 18.2C61.0672 18.6667 61.0672 19.1667 61.0672 19.7C61.0672 20.1667 61.0672 20.6333 61.0672 21.1C61.1339 21.5 61.2005 21.9 61.2672 22.3C61.2672 22.5 61.2672 22.7 61.2672 22.9C61.2672 23.1 61.3005 23.3 61.3672 23.5C61.3672 23.9 61.3672 24.3 61.3672 24.7C61.4339 25.1 61.5005 25.5333 61.5672 26C61.6339 26.7333 61.7005 27.5 61.7672 28.3C61.8339 29.1 61.8672 29.9 61.8672 30.7C61.8672 31.0333 61.8672 31.4 61.8672 31.8C61.8672 32.1333 61.9005 32.4667 61.9672 32.8C62.0339 33 62.0672 33.2 62.0672 33.4C62.0672 33.6 62.0672 33.8 62.0672 34V36C62.0672 36.4 62.1005 36.7333 62.1672 37C62.3005 37.4667 62.3339 37.9333 62.2672 38.4C62.2672 38.8 62.3005 39.2333 62.3672 39.7L62.6672 44.3C62.7339 44.9667 62.7672 45.6667 62.7672 46.4C62.8339 47.0667 62.8672 47.7667 62.8672 48.5C62.8672 48.7667 62.8672 49.0667 62.8672 49.4C62.8672 49.6667 62.9005 49.9333 62.9672 50.2C63.0339 50.4 63.0672 50.6 63.0672 50.8C63.0672 51 63.0672 51.2 63.0672 51.4C63.1339 51.4667 63.1339 51.6 63.0672 51.8C63.0672 51.9333 63.1005 52.0667 63.1672 52.2C63.3005 52.6667 63.3672 53.1333 63.3672 53.6C63.3672 54.0667 63.3672 54.5667 63.3672 55.1C63.3672 55.3667 63.3672 55.6667 63.3672 56C63.4339 56.2667 63.4672 56.5667 63.4672 56.9C63.5339 57.2333 63.5672 57.6 63.5672 58C63.5672 58.4 63.5672 58.7667 63.5672 59.1C63.6339 59.4333 63.6672 59.8 63.6672 60.2C63.6672 60.5333 63.7005 60.8667 63.7672 61.2C63.8339 61.3333 63.8672 61.4667 63.8672 61.6C63.8672 62.3333 63.9339 63.0667 64.0672 63.8C64.2005 64.5333 64.3339 65.2667 64.4672 66C64.5339 66.2 64.5672 66.4333 64.5672 66.7C64.5672 66.9 64.5672 67.1 64.5672 67.3C64.5672 67.5 64.5005 67.6667 64.3672 67.8C64.1005 68 63.9005 68.4 63.7672 69C63.7672 69.2 63.6672 69.3667 63.4672 69.5C63.0005 69.7 62.6005 69.9667 62.2672 70.3C61.7339 70.7667 61.1005 71 60.3672 71ZM92.8258 70.5C92.5591 70.5 92.3258 70.5 92.1258 70.5C91.9258 70.5 91.6924 70.4667 91.4258 70.4C91.2924 70.4 91.1258 70.3667 90.9258 70.3C90.7924 70.3 90.6591 70.3 90.5258 70.3C89.4591 70.2333 88.4591 70.0333 87.5258 69.7C86.5924 69.3667 85.6591 68.9667 84.7258 68.5C84.6591 68.5 84.5924 68.5 84.5258 68.5C84.5258 68.4333 84.4924 68.4 84.4258 68.4C83.7591 68.0667 83.1591 67.6667 82.6258 67.2C82.1591 66.7333 81.6924 66.2667 81.2258 65.8C80.6924 65.1333 80.3258 64.5 80.1258 63.9C79.8591 63.3667 79.5258 62.8 79.1258 62.2C78.4591 61.4667 77.9591 60.5333 77.6258 59.4C77.4258 58.8667 77.2258 58.3333 77.0258 57.8C76.8258 57.2667 76.6591 56.7 76.5258 56.1C76.4591 55.9 76.3924 55.7 76.3258 55.5C76.2591 55.2333 76.1591 54.9667 76.0258 54.7C75.8924 54.3667 75.7591 54 75.6258 53.6C75.5591 53.2 75.4591 52.8 75.3258 52.4C75.2591 52.1333 75.1591 51.7 75.0258 51.1C74.9591 50.4333 74.9258 50.0333 74.9258 49.9V45.6C74.9924 45.2 75.0591 44.8333 75.1258 44.5C75.1924 44.1 75.2591 43.7 75.3258 43.3L75.4258 43.2C75.4258 43.2667 75.4258 43.3 75.4258 43.3C75.4924 43.3 75.5258 43.3333 75.5258 43.4C75.5924 43.4 75.6258 43.4333 75.6258 43.5C75.6924 43.5667 75.7258 43.5333 75.7258 43.4C75.7258 43 75.6924 42.6667 75.6258 42.4C75.6258 42.2667 75.5924 42.1333 75.5258 42C75.5258 41.8667 75.6591 41.7667 75.9258 41.7C75.9924 41.7 76.0258 41.6 76.0258 41.4L76.9258 37C76.9924 36.6667 77.0591 36.3667 77.1258 36.1C77.1924 35.7667 77.2591 35.4667 77.3258 35.2L77.5258 34.1C77.4591 34.2333 77.4924 34 77.6258 33.4C77.8258 32.8 77.9591 32.4 78.0258 32.2C78.1591 31.8667 78.3258 31.5333 78.5258 31.2C78.7924 30.8667 78.9591 30.6333 79.0258 30.5C79.5591 29.9 80.0591 29.0667 80.5258 28L82.4258 25C82.6924 24.7333 82.8258 24.4 82.8258 24C82.7591 23.6667 82.8591 23.3 83.1258 22.9C83.3258 22.5 83.5258 22.1 83.7258 21.7C83.9924 21.3 84.2591 20.9 84.5258 20.5C84.8591 19.9667 85.2258 19.4333 85.6258 18.9C86.0924 18.3 86.5258 17.7667 86.9258 17.3C87.0591 17.1 87.1924 16.9 87.3258 16.7C87.5258 16.5 87.7591 16.3667 88.0258 16.3C88.1591 16.3 88.2591 16.2667 88.3258 16.2C88.3924 16.1333 88.4591 16.0667 88.5258 16C89.8591 14.6 91.3591 13.3 93.0258 12.1C93.1591 11.9667 93.2924 11.8333 93.4258 11.7C93.5591 11.5667 93.6924 11.4667 93.8258 11.4C94.1591 11.2 94.5258 11.1 94.9258 11.1C95.2591 11.1 95.5258 11.0667 95.7258 11C95.9258 11 96.2258 10.9333 96.6258 10.8C97.0924 10.6667 97.4591 10.7333 97.7258 11C98.1258 11.4 98.7924 11.5333 99.7258 11.4C100.326 11.3333 100.826 11.6667 101.226 12.4C101.359 12.6 101.459 12.8 101.526 13C101.659 13.2 101.826 13.3667 102.026 13.5C102.226 13.9 102.492 14.2667 102.826 14.6C103.226 14.9333 103.559 15.2667 103.826 15.6L105.126 17.4C105.259 17.6 105.392 17.8333 105.526 18.1C105.726 18.3 105.892 18.5 106.026 18.7C106.359 19.0333 106.559 19.3667 106.626 19.7C106.759 20.0333 106.859 20.2667 106.926 20.4C107.059 20.4667 107.159 20.7667 107.226 21.3C107.292 21.5667 107.292 21.7333 107.226 21.8C107.226 21.8 107.359 21.8 107.626 21.8C107.892 21.8 108.026 21.9667 108.026 22.3C108.026 23.0333 107.892 23.6667 107.626 24.2C107.492 24.4 107.359 24.5 107.226 24.5C107.159 24.5 107.059 24.5667 106.926 24.7C106.726 25.0333 106.492 25.3667 106.226 25.7C106.026 26.0333 105.792 26.4 105.526 26.8C105.326 27.1333 105.059 27.4333 104.726 27.7C104.459 27.9667 104.159 28.2333 103.826 28.5C103.292 29.0333 102.659 29.2333 101.926 29.1C101.326 29.1 100.892 29.0667 100.626 29C100.426 28.9333 100.226 28.8667 100.026 28.8C99.8924 28.6667 99.7258 28.5667 99.5258 28.5C99.3924 28.5 99.2591 28.4333 99.1258 28.3C99.0591 28.1667 98.9924 28.0667 98.9258 28C98.8591 27.8667 98.7591 27.7667 98.6258 27.7C98.2924 27.5 98.0258 27.2667 97.8258 27C97.6258 26.6667 97.4591 26.3667 97.3258 26.1C97.2591 25.9 97.2258 25.7 97.2258 25.5C97.2258 25.3 97.2258 25.1333 97.2258 25C97.1591 24.6 97.0924 24.2 97.0258 23.8C97.0258 23.4 96.9591 23 96.8258 22.6C96.8258 22.4667 96.6591 22.4 96.3258 22.4C95.9258 22.6667 95.5258 22.9333 95.1258 23.2C94.7258 23.4667 94.3591 23.8 94.0258 24.2L90.9258 27.9C90.7258 28.1 90.5258 28.3333 90.3258 28.6C90.1924 28.8 90.0591 29 89.9258 29.2C89.6591 29.5333 89.3924 29.9 89.1258 30.3C88.9258 30.6333 88.6591 30.9667 88.3258 31.3C88.1924 31.4333 88.0924 31.5667 88.0258 31.7C87.8258 32.1667 87.5924 32.6 87.3258 33C87.1258 33.4 86.9258 33.8667 86.7258 34.4C86.3924 35.0667 86.0924 35.8 85.8258 36.6C85.6258 37.3333 85.4591 38.1 85.3258 38.9C85.2591 39.9 85.0591 40.9 84.7258 41.9C84.6591 42.2333 84.5924 42.6 84.5258 43C84.4591 43.4 84.3924 43.8 84.3258 44.2C84.2591 44.8 84.1591 45.4 84.0258 46C83.8924 46.6 83.8591 47.2333 83.9258 47.9C84.0591 49.2333 84.2591 50.5 84.5258 51.7C84.7258 52.3667 84.8924 53.0333 85.0258 53.7C85.2258 54.3 85.4258 54.9333 85.6258 55.6C85.6924 55.8 85.7591 56 85.8258 56.2C85.8924 56.4 85.9591 56.6 86.0258 56.8C86.4258 57.7333 87.1591 58.4667 88.2258 59C88.6258 59.2 89.0591 59.3 89.5258 59.3C89.9258 59.3 90.3258 59.3333 90.7258 59.4C91.1258 59.4 91.5258 59.3667 91.9258 59.3C93.7924 59.1 95.5258 58.8 97.1258 58.4C97.8591 58.2667 98.5591 58.0667 99.2258 57.8C99.8924 57.5333 100.559 57.2667 101.226 57C101.759 56.8 102.259 56.5 102.726 56.1C103.259 55.7 103.792 55.3 104.326 54.9C104.926 54.4333 105.492 53.9667 106.026 53.5C106.559 53.0333 107.092 52.5667 107.626 52.1C108.159 51.6333 108.659 51.1333 109.126 50.6C109.326 50.4 109.626 50.1667 110.026 49.9C110.226 49.7667 110.426 49.6333 110.626 49.5C110.826 49.3667 110.992 49.2333 111.126 49.1C111.459 48.9 111.759 48.7 112.026 48.5C112.359 48.3 112.726 48.2 113.126 48.2C113.326 48.0667 113.526 48 113.726 48C113.992 47.9333 114.226 47.8667 114.426 47.8C115.026 47.6 115.559 47.6 116.026 47.8C116.226 47.8667 116.426 47.9333 116.626 48C116.826 48.0667 117.026 48.1667 117.226 48.3C117.759 48.6333 118.259 49.1667 118.726 49.9C119.059 50.7 119.226 51.4 119.226 52V52.6C119.226 53.4667 118.892 54.2333 118.226 54.9C117.492 55.8333 116.726 56.5667 115.926 57.1C115.459 57.3667 114.992 57.7333 114.526 58.2C113.859 58.7333 113.159 59.3 112.426 59.9C111.759 60.5 111.059 61.0667 110.326 61.6L109.926 62C109.726 62.1333 109.526 62.3 109.326 62.5C109.126 62.7 108.892 62.8667 108.626 63C108.159 63.4667 107.626 63.9 107.026 64.3C106.426 64.6333 105.826 64.9667 105.226 65.3C104.626 65.5667 104.059 65.9667 103.526 66.5C103.326 66.7 103.126 66.9 102.926 67.1C102.726 67.3 102.492 67.4667 102.226 67.6C101.359 68.0667 100.359 68.5333 99.2258 69C99.1591 69.0667 99.0591 69.1333 98.9258 69.2C98.7924 69.2667 98.6591 69.3333 98.5258 69.4C98.1258 69.6 97.6924 69.7667 97.2258 69.9C96.8258 69.9667 96.4258 70.0333 96.0258 70.1C95.4924 70.1667 94.9591 70.2 94.4258 70.2C93.8924 70.2667 93.3591 70.3667 92.8258 70.5ZM138.577 70.7C138.177 70.7 137.91 70.6667 137.777 70.6C137.443 70.4667 137.11 70.4 136.777 70.4C136.51 70.4667 136.21 70.5 135.877 70.5C135.81 70.5 135.743 70.5 135.677 70.5C135.61 70.5667 135.543 70.6 135.477 70.6C135.01 70.6667 134.543 70.7 134.077 70.7C133.677 70.7 133.277 70.6333 132.877 70.5C132.81 70.4333 132.743 70.4 132.677 70.4C132.21 70.4667 131.81 70.3333 131.477 70C131.143 69.6667 130.81 69.3667 130.477 69.1C130.143 68.7667 129.977 68.4 129.977 68L129.677 67.2C129.477 66.7333 129.41 66.3 129.477 65.9C129.543 65.7667 129.543 65.6333 129.477 65.5C129.477 65.3667 129.477 65.2333 129.477 65.1C129.41 64.9667 129.377 64.8333 129.377 64.7C129.377 64.5 129.343 64.3333 129.277 64.2C129.143 63.6 129.043 63 128.977 62.4C128.977 61.7333 129.01 61.1 129.077 60.5C129.143 60.1 129.377 59.4333 129.777 58.5C130.177 57.5 130.41 56.9 130.477 56.7C130.677 56.3667 130.777 56.1 130.777 55.9C130.71 55.1667 130.677 54.4333 130.677 53.7C130.743 52.9 130.777 52.1333 130.777 51.4C130.777 50.9333 130.877 50.5667 131.077 50.3C131.343 49.8333 131.377 49.3333 131.177 48.8L130.877 47.7C130.477 46.9667 130.51 46.3333 130.977 45.8C130.977 45.7333 130.977 45.7 130.977 45.7C131.043 45.6333 131.077 45.5667 131.077 45.5C131.21 45.3667 131.243 45.2 131.177 45C131.11 44.7333 131.077 44.5333 131.077 44.4C131.077 44.1333 131.11 43.8667 131.177 43.6C131.31 43.2667 131.343 42.9667 131.277 42.7C131.277 42.7 131.21 42.6333 131.077 42.5C131.01 42.3667 130.977 42.1 130.977 41.7C131.043 41.3 131.077 41.0667 131.077 41V38.2C131.143 37.8667 131.177 37.5667 131.177 37.3C131.177 36.9667 131.21 36.6333 131.277 36.3C131.343 35.9 131.343 35.5 131.277 35.1C131.277 34.6333 131.277 34.1667 131.277 33.7C131.21 33.3667 131.143 33 131.077 32.6C131.077 32.2 131.077 31.8 131.077 31.4C131.01 31.2667 130.977 31.1 130.977 30.9C130.977 30.7 130.977 30.5333 130.977 30.4C130.91 30.0667 130.843 29.7333 130.777 29.4C130.777 29.0667 130.777 28.7333 130.777 28.4C130.777 28.2667 130.643 27.8333 130.377 27.1C130.11 26.3 130.01 25.6333 130.077 25.1C130.143 24.9667 130.177 24.8 130.177 24.6C130.177 24.4 130.11 24.2333 129.977 24.1C129.843 24.0333 129.777 23.9 129.777 23.7V23.4C129.977 22.6 129.877 21.8 129.477 21C129.21 20.6 129.11 20.2 129.177 19.8C129.177 19.2667 128.943 18.8667 128.477 18.6C128.143 18.2667 127.843 17.8667 127.577 17.4C127.31 16.9333 127.143 16.4667 127.077 16C127.01 15.6667 126.977 15.3333 126.977 15C126.977 14.6667 126.977 14.3667 126.977 14.1C126.977 13.8333 127.01 13.6667 127.077 13.6C127.343 13.3333 127.477 13.0333 127.477 12.7C127.477 12.3 127.51 12 127.577 11.8C127.643 11.7333 127.71 11.7 127.777 11.7C127.843 11.7 127.91 11.6667 127.977 11.6C128.243 11.5333 128.377 11.3 128.377 10.9C128.243 10.6333 128.177 10.4 128.177 10.2C128.11 9.93333 128.21 9.7 128.477 9.5C128.61 9.23333 128.777 9.16666 128.977 9.29999C129.443 9.5 129.977 9.43333 130.577 9.1C130.843 8.96667 131.01 8.9 131.077 8.9C131.277 8.9 131.377 8.9 131.377 8.9C131.443 8.83333 131.643 8.8 131.977 8.8C132.377 8.86666 132.743 8.73333 133.077 8.39999C133.543 7.93333 134.11 7.7 134.777 7.7H140.977C142.51 7.76666 144.043 7.76666 145.577 7.7C147.11 7.63333 148.61 7.6 150.077 7.6C150.41 7.6 150.677 7.6 150.877 7.6C151.143 7.53333 151.41 7.46667 151.677 7.4C152.077 7.2 152.543 7.1 153.077 7.1H155.377C155.91 7.1 156.377 7.1 156.777 7.1C157.243 7.03333 157.71 6.96666 158.177 6.9C158.443 6.83333 158.677 6.8 158.877 6.8C159.143 6.8 159.41 6.8 159.677 6.8C159.943 6.8 160.21 6.8 160.477 6.8C160.743 6.8 161.01 6.76666 161.277 6.7C161.81 6.63333 162.377 6.6 162.977 6.6C163.577 6.53333 164.143 6.49999 164.677 6.49999C164.943 6.49999 165.177 6.49999 165.377 6.49999C165.643 6.43333 165.91 6.36666 166.177 6.3C166.71 6.16666 167.21 6.09999 167.677 6.09999C168.21 6.03333 168.71 5.96666 169.177 5.9C169.71 5.83333 170.21 5.76667 170.677 5.7C171.21 5.63333 171.71 5.56666 172.177 5.5C172.777 5.5 173.21 5.56666 173.477 5.7C173.877 5.96666 174.243 6.19999 174.577 6.4C174.977 6.6 175.343 6.86666 175.677 7.2C175.943 7.46667 176.11 7.7 176.177 7.89999C176.243 8.16666 176.31 8.43333 176.377 8.7C176.443 8.96666 176.51 9.26666 176.577 9.6V10.3C176.51 10.6333 176.443 11 176.377 11.4C176.377 11.7333 176.343 12.1 176.277 12.5C176.143 12.7667 175.977 13 175.777 13.2L173.977 15C173.31 15.2 172.643 15.3333 171.977 15.4C171.377 15.4667 170.743 15.4667 170.077 15.4H169.377C169.043 15.4667 168.71 15.5 168.377 15.5C168.043 15.5 167.71 15.4667 167.377 15.4C166.977 15.3333 166.577 15.3333 166.177 15.4C165.777 15.4 165.377 15.4 164.977 15.4C164.71 15.4 164.443 15.4333 164.177 15.5C163.977 15.5 163.743 15.4667 163.477 15.4C163.143 15.3333 162.81 15.3333 162.477 15.4C162.21 15.4 161.91 15.4333 161.577 15.5C161.31 15.5 161.01 15.5333 160.677 15.6C160.41 15.6 160.11 15.6 159.777 15.6C158.91 15.7333 157.977 15.8 156.977 15.8C156.043 15.8 155.11 15.8667 154.177 16C153.577 15.9333 153.01 15.9667 152.477 16.1C151.943 16.1667 151.377 16.2333 150.777 16.3C150.243 16.3667 149.677 16.4 149.077 16.4C148.477 16.4 147.91 16.4667 147.377 16.6C146.71 16.6 146.043 16.7 145.377 16.9C144.777 17.0333 144.143 17.1333 143.477 17.2L142.777 17.3C142.31 17.3 141.877 17.3667 141.477 17.5C141.077 17.5667 140.643 17.6667 140.177 17.8C139.91 17.8667 139.643 17.9333 139.377 18C139.11 18 138.81 18.0333 138.477 18.1C138.277 18.1 138.043 18.1667 137.777 18.3C137.577 18.3667 137.477 18.5667 137.477 18.9L137.777 19.8C137.843 19.9333 137.81 20.2667 137.677 20.8C137.61 21.3333 137.543 21.7333 137.477 22C137.477 22.2 137.51 22.4 137.577 22.6C137.643 22.8 137.71 23 137.777 23.2C137.977 23.7333 138.077 24.3333 138.077 25C138.077 25.6 138.143 26.1667 138.277 26.7C138.343 26.9667 138.377 27.2667 138.377 27.6C138.377 27.8667 138.41 28.1667 138.477 28.5C138.477 28.6333 138.477 28.8 138.477 29C138.543 29.1333 138.577 29.3 138.577 29.5C138.577 29.7 138.543 29.8333 138.477 29.9C138.277 30.1667 138.177 30.4667 138.177 30.8C138.177 31.1333 138.177 31.4667 138.177 31.8C138.51 32.4667 138.677 33.1333 138.677 33.8C138.677 34.4667 138.677 35.1333 138.677 35.8C138.677 36 138.843 36.0667 139.177 36H139.277C139.41 35.7333 139.543 35.5333 139.677 35.4C139.877 35.4 140.11 35.3333 140.377 35.2C140.577 35.0667 140.843 35 141.177 35C141.71 35.0667 142.21 35.0667 142.677 35C143.143 34.8667 143.61 34.7333 144.077 34.6C147.21 33.8 150.143 32.7667 152.877 31.5C153.61 31.1667 154.377 30.9 155.177 30.7C155.977 30.4333 156.777 30.2667 157.577 30.2H157.877C158.477 30.1333 159.077 30.0667 159.677 30C160.277 29.9333 160.877 29.9 161.477 29.9C162.277 29.8333 163.043 29.7333 163.777 29.6C164.577 29.4667 165.377 29.3667 166.177 29.3C166.643 29.1667 167.077 29.0667 167.477 29C167.877 28.8667 168.31 28.7 168.777 28.5C169.643 28.1667 170.443 28 171.177 28C171.71 28.0667 172.21 28.2 172.677 28.4C173.143 28.5333 173.61 28.7333 174.077 29C175.077 29.6667 175.577 30.6667 175.577 32C175.577 32.5333 175.51 33.0667 175.377 33.6C175.31 34.1333 175.277 34.6667 175.277 35.2C175.277 35.3333 175.21 35.4667 175.077 35.6L174.777 36.1C174.71 36.3667 174.643 36.6333 174.577 36.9C174.51 37.1667 174.343 37.3667 174.077 37.5C173.677 37.8333 173.243 38.2 172.777 38.6C172.377 38.9333 171.91 39.1667 171.377 39.3C171.11 39.3667 170.843 39.4333 170.577 39.5C170.377 39.5667 170.143 39.6 169.877 39.6C168.81 39.6 167.71 39.6667 166.577 39.8C165.51 39.9333 164.41 40.0667 163.277 40.2C162.41 40.2667 161.543 40.3667 160.677 40.5C159.877 40.6333 159.043 40.7 158.177 40.7C157.377 40.7 156.477 40.8667 155.477 41.2C154.81 41.3333 154.11 41.4667 153.377 41.6C152.643 41.7333 151.91 41.8333 151.177 41.9C150.643 41.9667 150.077 42.0667 149.477 42.2C148.943 42.2667 148.41 42.3333 147.877 42.4L146.177 42.7C146.043 42.7667 145.843 42.8 145.577 42.8C145.11 42.9333 144.643 43.0333 144.177 43.1C143.71 43.1667 143.243 43.2667 142.777 43.4C142.31 43.4667 141.843 43.5667 141.377 43.7C140.977 43.8333 140.543 43.9667 140.077 44.1C139.743 44.1667 139.477 44.3 139.277 44.5C139.077 44.6333 138.91 44.8333 138.777 45.1C138.71 45.3 138.71 45.5 138.777 45.7C138.843 45.9667 138.81 46.2333 138.677 46.5C138.743 47.1667 138.777 47.8333 138.777 48.5C138.843 49.1667 138.843 49.8333 138.777 50.5C138.91 51.0333 138.943 51.5667 138.877 52.1C138.877 52.6333 138.843 53.1667 138.777 53.7C138.643 54.5 138.677 55.1667 138.877 55.7C139.077 56.5667 139.01 57.4667 138.677 58.4C138.543 58.8 138.543 59.0667 138.677 59.2C138.81 59.4 138.81 59.6333 138.677 59.9V60.5C138.61 61.0333 138.843 61.3 139.377 61.3H139.577C140.043 61.3 140.51 61.4667 140.977 61.8C141.31 62.1333 141.71 62.2333 142.177 62.1L144.977 61.8C145.377 61.7333 145.777 61.7 146.177 61.7C146.577 61.6333 146.977 61.6 147.377 61.6C147.51 61.5333 147.71 61.5667 147.977 61.7C148.31 61.9 148.61 61.9333 148.877 61.8C149.01 61.6667 149.177 61.5667 149.377 61.5C149.643 61.4333 149.843 61.3333 149.977 61.2C150.377 60.8 150.877 60.6667 151.477 60.8C152.01 60.9333 152.443 60.9 152.777 60.7C153.377 60.5 153.943 60.4333 154.477 60.5C154.81 60.5667 155.143 60.5333 155.477 60.4C155.81 60.2667 156.143 60.2 156.477 60.2C156.61 60.2 156.71 60.2333 156.777 60.3C156.843 60.3 156.91 60.2667 156.977 60.2C157.11 60.2 157.243 60.1667 157.377 60.1C157.51 60.0333 157.61 60 157.677 60C158.143 59.8 158.577 59.7333 158.977 59.8C159.31 59.8 159.477 59.8 159.477 59.8C159.743 59.7333 159.977 59.7333 160.177 59.8C160.443 59.8667 160.677 59.9667 160.877 60.1C161.21 60.1667 161.477 60.2667 161.677 60.4C161.943 60.5333 162.21 60.6333 162.477 60.7C162.61 60.7 162.71 60.7333 162.777 60.8C163.11 61.0667 163.51 61.3 163.977 61.5C164.51 61.7 164.81 61.9333 164.877 62.2C165.01 62.6 165.077 63 165.077 63.4C165.077 63.7333 165.11 64.1 165.177 64.5C165.177 64.7 165.143 64.9 165.077 65.1C165.077 65.3 165.043 65.5 164.977 65.7C164.843 65.9667 164.677 66.2667 164.477 66.6C164.343 66.9333 164.143 67.2333 163.877 67.5C163.743 67.6333 163.61 67.7667 163.477 67.9C163.41 68.0333 163.31 68.1667 163.177 68.3C162.91 68.5667 162.61 68.8 162.277 69C161.943 69.2 161.577 69.3 161.177 69.3C160.91 69.3 160.71 69.3333 160.577 69.4C160.31 69.5333 160.043 69.6 159.777 69.6C159.51 69.6 159.21 69.6 158.877 69.6C158.41 69.6667 157.943 69.7333 157.477 69.8C157.077 69.8 156.643 69.7667 156.177 69.7C155.91 69.6333 155.677 69.6333 155.477 69.7C154.81 69.9 154.143 69.9333 153.477 69.8C152.81 69.8 152.143 69.8333 151.477 69.9C150.877 69.9 150.277 69.9 149.677 69.9H148.377C148.177 69.9 148.01 69.9333 147.877 70C147.61 70.1333 147.277 70.2 146.877 70.2C146.543 70.2 146.21 70.1667 145.877 70.1H144.877C144.81 70.1 144.71 70.1 144.577 70.1C144.443 70.1667 144.31 70.1667 144.177 70.1C143.977 70.0333 143.777 70 143.577 70C143.443 70.0667 143.277 70.1333 143.077 70.2C142.943 70.2 142.81 70.2 142.677 70.2C142.61 70.2667 142.51 70.3 142.377 70.3C141.71 70.2333 141.077 70.2333 140.477 70.3C139.877 70.4333 139.243 70.5667 138.577 70.7ZM231.133 73.8C231.066 73.8667 230.899 73.8333 230.633 73.7C230.366 73.5667 230.099 73.4667 229.833 73.4C229.633 73.4 229.399 73.3667 229.133 73.3C228.933 73.3 228.766 73.2 228.633 73C228.566 72.8 228.366 72.6 228.033 72.4C227.633 72.2 227.366 71.8333 227.233 71.3L226.933 70.3C226.733 69.9 226.733 69.5 226.933 69.1C226.999 68.9 226.999 68.7 226.933 68.5C226.933 68.3 226.966 68.1 227.033 67.9C227.099 67.7667 227.166 67.6333 227.233 67.5C227.299 67.3 227.366 67.1333 227.433 67C227.433 66.8 227.433 66.6 227.433 66.4C227.499 66.2 227.533 66 227.533 65.8C227.533 65.0667 227.533 64.3 227.533 63.5C227.533 62.7 227.566 61.9333 227.633 61.2C227.633 60.6667 227.599 60.1333 227.533 59.6C227.533 59 227.566 58.4333 227.633 57.9C227.633 57.5 227.666 57.1333 227.733 56.8C227.799 56.4 227.799 56.0333 227.733 55.7C227.733 55.3667 227.699 55.0333 227.633 54.7C227.633 54.3667 227.633 54.0333 227.633 53.7C227.633 53.2333 227.599 52.8 227.533 52.4C227.533 52 227.433 51.5667 227.233 51.1C227.099 50.5667 227.033 50.1 227.033 49.7C227.033 48.9667 227.033 48.2667 227.033 47.6C227.033 46.9333 227.066 46.2667 227.133 45.6C227.133 45.4667 227.133 45.3333 227.133 45.2C227.199 45.0667 227.199 44.9667 227.133 44.9C227.066 44.3667 226.999 43.8667 226.933 43.4C226.933 42.8667 226.933 42.3667 226.933 41.9V41.6C226.866 41.1333 226.666 40.7 226.333 40.3L225.633 39.4C225.366 39 225.233 38.6333 225.233 38.3C225.233 38.1 225.199 37.9 225.133 37.7C225.133 37.5 225.133 37.3 225.133 37.1C225.066 36.5667 225.166 36.0667 225.433 35.6C225.699 35.2 225.966 34.7 226.233 34.1C226.366 33.7667 226.366 33.4667 226.233 33.2C226.166 32.9333 226.133 32.6667 226.133 32.4V31.5C226.133 31.1 226.099 30.8 226.033 30.6C225.966 29.8667 225.899 29.1333 225.833 28.4C225.833 27.6 225.766 26.8667 225.633 26.2C225.566 25.6667 225.533 25.1333 225.533 24.6C225.533 24.0667 225.533 23.5667 225.533 23.1C225.466 22.7667 225.433 22.4333 225.433 22.1C225.433 21.7667 225.366 21.4333 225.233 21.1L225.133 20.4C225.199 19.6667 225.099 18.9 224.833 18.1C224.766 17.8333 224.699 17.5667 224.633 17.3C224.633 16.9667 224.666 16.6667 224.733 16.4C224.933 15.8667 224.999 15.3 224.933 14.7C224.933 14.1 224.899 13.5 224.833 12.9C224.766 12.3667 224.733 11.8667 224.733 11.4C224.733 10.8667 224.699 10.3667 224.633 9.9C224.566 9.1 224.599 8.33333 224.733 7.6C224.933 6.8 225.166 6 225.433 5.2C225.566 4.93333 225.699 4.76666 225.833 4.69999C226.099 4.56666 226.333 4.43333 226.533 4.3C226.733 4.1 226.933 3.93333 227.133 3.79999C227.399 3.66666 227.533 3.6 227.533 3.6C227.866 3.46666 228.166 3.36666 228.433 3.29999C228.766 3.23333 229.066 3.16666 229.333 3.1C229.933 2.9 230.466 2.9 230.933 3.1C231.466 3.3 231.966 3.56667 232.433 3.9C232.966 4.16667 233.399 4.56666 233.733 5.1C233.799 5.23333 233.866 5.4 233.933 5.59999C233.999 5.73333 234.066 5.9 234.133 6.09999C234.133 6.36666 234.133 6.66666 234.133 6.99999C234.199 7.26666 234.266 7.56666 234.333 7.89999C234.466 8.3 234.666 8.5 234.933 8.5H235.233C236.299 8.56666 237.333 8.63333 238.333 8.7C239.399 8.7 240.466 8.7 241.533 8.7H241.933C242.466 8.56666 242.899 8.5 243.233 8.5C243.499 8.56666 243.866 8.6 244.333 8.6C244.466 8.53333 244.633 8.5 244.833 8.5C245.033 8.5 245.199 8.5 245.333 8.5C245.733 8.43333 246.066 8.43333 246.333 8.5C246.799 8.63333 247.199 8.6 247.533 8.39999C247.733 8.26666 247.999 8.26666 248.333 8.39999C248.466 8.46666 248.633 8.5 248.833 8.5C249.033 8.5 249.199 8.5 249.333 8.5C249.866 8.36666 250.399 8.26666 250.933 8.2C251.533 8.13333 252.099 8.06667 252.633 8C253.166 7.86666 253.666 7.76666 254.133 7.7C254.666 7.63333 255.166 7.56667 255.633 7.5C255.766 7.43333 255.966 7.4 256.233 7.4C257.233 7.46667 258.266 7.3 259.333 6.9C259.533 6.83333 259.733 6.8 259.933 6.8C260.133 6.73333 260.366 6.73333 260.633 6.8C260.899 6.86666 261.233 6.86666 261.633 6.8C262.166 6.73333 262.699 6.66667 263.233 6.6C263.766 6.46666 264.266 6.36666 264.733 6.3C265.066 6.16666 265.366 6.06666 265.633 6C265.899 5.86666 266.166 5.83333 266.433 5.9L267.333 5.59999C267.799 5.4 268.266 5.46667 268.733 5.8L270.333 6.7C270.466 6.76666 270.566 6.83333 270.633 6.9C270.766 6.96666 270.866 7.06666 270.933 7.2C271.133 7.53333 271.299 7.86666 271.433 8.2C271.633 8.53333 271.766 8.9 271.833 9.29999C271.833 9.56666 271.866 9.8 271.933 10C272.066 10.2 272.066 10.4333 271.933 10.7C271.866 10.9 271.799 11.1 271.733 11.3C271.666 11.5 271.599 11.7 271.533 11.9L271.233 12.6C271.166 12.9333 270.966 13.2 270.633 13.4L270.233 13.8C270.099 13.9333 269.933 14.1 269.733 14.3C269.599 14.4333 269.499 14.6 269.433 14.8C269.366 15 269.233 15.1333 269.033 15.2C268.766 15.2667 268.499 15.3667 268.233 15.5C268.033 15.6333 267.833 15.8 267.633 16C267.366 16.0667 267.099 16.1667 266.833 16.3C266.566 16.3667 266.266 16.3667 265.933 16.3C265.533 16.2333 265.033 16.3667 264.433 16.7C264.099 16.9 263.733 17.0667 263.333 17.2C262.933 17.2667 262.533 17.3667 262.133 17.5C261.333 17.7 260.599 17.7 259.933 17.5C259.666 17.3667 259.399 17.3 259.133 17.3C258.866 17.3 258.599 17.2667 258.333 17.2C258.066 17.1333 257.799 17.0667 257.533 17C257.333 16.9333 257.066 16.9 256.733 16.9C256.466 16.9 256.233 16.9 256.033 16.9C255.833 16.8333 255.599 16.7667 255.333 16.7C255.066 16.6333 254.633 16.6 254.033 16.6C253.833 16.6 253.633 16.6333 253.433 16.7C253.233 16.7 252.999 16.6667 252.733 16.6C252.466 16.5333 252.166 16.5333 251.833 16.6C251.566 16.6 251.266 16.6333 250.933 16.7C250.733 16.7667 250.533 16.8333 250.333 16.9C250.199 16.9 250.066 16.9 249.933 16.9C249.533 17.0333 249.233 17.0667 249.033 17C248.699 16.9333 248.366 16.9333 248.033 17C247.699 17 247.366 17.0333 247.033 17.1C246.899 17.1 246.733 17.1 246.533 17.1C246.333 17.1 246.166 17.0667 246.033 17C245.233 16.8 244.466 16.9667 243.733 17.5H243.533C243.266 17.7667 242.999 17.8 242.733 17.6C242.066 17.2667 241.566 17.4 241.233 18C241.033 18.4 240.733 18.5333 240.333 18.4C239.933 18.4 239.666 18.3333 239.533 18.2C239.199 18.0667 238.933 18.1667 238.733 18.5C238.599 18.6333 238.466 18.7 238.333 18.7C238.133 18.7 237.999 18.6667 237.933 18.6C237.666 18.5333 237.433 18.5333 237.233 18.6C236.433 18.9333 235.699 19.2 235.033 19.4C234.833 19.4 234.733 19.5333 234.733 19.8C234.666 20.8 234.666 21.8333 234.733 22.9C234.799 23.1667 234.833 23.4667 234.833 23.8C234.833 24.0667 234.866 24.3667 234.933 24.7C234.933 24.9667 234.933 25.2333 234.933 25.5C234.999 25.7667 235.066 26.0333 235.133 26.3V26.7C235.199 27.3667 235.266 28 235.333 28.6C235.399 29.2 235.466 29.8333 235.533 30.5C235.533 30.8333 235.633 31.2667 235.833 31.8C235.966 32.1333 236.199 32.3 236.533 32.3C236.733 32.3667 236.933 32.4 237.133 32.4C237.333 32.4 237.533 32.4 237.733 32.4H245.833C246.366 32.2667 246.899 32.2 247.433 32.2C248.033 32.2 248.599 32.2 249.133 32.2C249.399 32.2667 249.633 32.3 249.833 32.3C250.099 32.2333 250.333 32.2333 250.533 32.3H251.433C251.833 32.2333 252.233 32.2 252.633 32.2C253.033 32.1333 253.466 32.0667 253.933 32C254.466 31.8667 254.933 31.8 255.333 31.8C255.466 31.7333 255.666 31.7 255.933 31.7C256.466 31.7667 257.066 31.7 257.733 31.5C257.999 31.3 258.333 31.2667 258.733 31.4C258.999 31.4667 259.266 31.5 259.533 31.5C259.799 31.4333 260.066 31.4 260.333 31.4C260.599 31.3333 260.833 31.3 261.033 31.3C261.299 31.3 261.533 31.3 261.733 31.3C262.666 31.3667 263.633 31.3 264.633 31.1C265.033 31.0333 265.433 31 265.833 31C266.233 31 266.599 31 266.933 31C267.066 31 267.199 31.0333 267.333 31.1C267.533 31.1 267.699 31.0667 267.833 31C268.366 30.8667 268.899 30.8 269.433 30.8C270.033 30.7333 270.599 30.6 271.133 30.4C271.266 30.3333 271.433 30.2667 271.633 30.2C271.833 30.1333 271.999 30.0667 272.133 30C272.533 29.8 272.933 29.6667 273.333 29.6C273.799 29.4667 274.233 29.3667 274.633 29.3C274.833 29.2333 275.133 29.2 275.533 29.2H275.833C276.099 29.2667 276.366 29.3667 276.633 29.5C276.899 29.6333 277.133 29.8 277.333 30C277.799 30.4667 278.266 30.7 278.733 30.7C278.933 30.7 279.099 30.8333 279.233 31.1V31.4C279.233 31.6 279.166 31.7 279.033 31.7C279.033 31.7 278.999 31.7333 278.933 31.8C278.866 31.8 278.833 31.8333 278.833 31.9C278.966 32.0333 279.099 32.1 279.233 32.1V32.2C279.299 32.3333 279.266 32.5667 279.133 32.9C278.933 33.1 278.933 33.3333 279.133 33.6C279.399 34 279.433 34.3667 279.233 34.7C279.033 35.1 278.833 35.5 278.633 35.9C278.433 36.3 278.233 36.6667 278.033 37C277.633 37.6 277.166 38.0333 276.633 38.3C276.366 38.3667 276.033 38.4667 275.633 38.6C275.299 38.6667 274.966 38.7333 274.633 38.8C273.766 38.9333 272.866 39.0667 271.933 39.2C271.066 39.3333 270.166 39.4667 269.233 39.6C268.899 39.6667 268.566 39.7333 268.233 39.8C267.899 39.8 267.566 39.8333 267.233 39.9C266.566 39.9667 265.899 40.0333 265.233 40.1C264.566 40.1667 263.899 40.2667 263.233 40.4H262.433C262.099 40.4667 261.733 40.5333 261.333 40.6C260.999 40.6 260.666 40.6 260.333 40.6C259.799 40.6 259.266 40.6333 258.733 40.7C258.199 40.7 257.666 40.7333 257.133 40.8C256.799 40.8667 256.466 40.9 256.133 40.9C255.799 40.9 255.466 40.9 255.133 40.9C254.466 40.9 253.766 40.9 253.033 40.9C252.366 40.8333 251.666 40.7667 250.933 40.7C250.133 40.6333 249.333 40.6 248.533 40.6C247.799 40.6 247.033 40.6 246.233 40.6H242.533C242.199 40.6 241.966 40.6333 241.833 40.7C241.166 40.7667 240.466 40.8333 239.733 40.9C239.066 40.9 238.366 40.9 237.633 40.9H237.333C236.866 41.0333 236.633 41.2667 236.633 41.6C236.633 41.8667 236.633 42.1333 236.633 42.4C236.633 42.6 236.666 42.8 236.733 43C236.866 44 236.966 45 237.033 46C237.166 46.9333 237.233 47.8667 237.233 48.8C237.233 49.2667 237.233 49.7 237.233 50.1C237.233 50.5 237.266 50.9333 237.333 51.4C237.333 52.4667 237.366 53.5333 237.433 54.6C237.566 55.6667 237.599 56.7667 237.533 57.9C237.533 58.3667 237.533 58.8333 237.533 59.3C237.599 59.7667 237.666 60.2667 237.733 60.8C237.799 61.2667 237.799 61.7333 237.733 62.2C237.733 62.6 237.766 63.0667 237.833 63.6C237.833 63.8667 237.833 64.1667 237.833 64.5C237.899 64.7667 237.966 65.0667 238.033 65.4C238.099 65.6 238.099 65.8 238.033 66C238.033 66.2 238.066 66.4 238.133 66.6C238.133 66.8667 238.133 67.1333 238.133 67.4C238.133 67.6 238.166 67.8333 238.233 68.1C238.299 68.7 238.133 69.2 237.733 69.6C237.666 69.8 237.566 69.9667 237.433 70.1C237.366 70.3 237.299 70.4667 237.233 70.6C237.099 70.9333 236.899 71.2 236.633 71.4C236.366 71.6667 236.066 71.9 235.733 72.1C235.666 72.1667 235.566 72.2 235.433 72.2C235.299 72.2667 235.166 72.3333 235.033 72.4C234.633 72.5333 234.333 72.6667 234.133 72.8C233.999 73.0667 233.799 73.2333 233.533 73.3C233.333 73.3667 233.099 73.4667 232.833 73.6C232.566 73.6667 232.266 73.7 231.933 73.7C231.666 73.7667 231.399 73.8 231.133 73.8ZM324.998 77.3C324.398 77.3 323.865 77.0667 323.398 76.6C323.265 76.4 323.132 76.2 322.998 76C322.865 75.8 322.732 75.6 322.598 75.4C321.998 74 321.698 72.5333 321.698 71L321.398 68.6C321.198 67.6667 321.032 66.7333 320.898 65.8C320.765 64.8667 320.532 63.9667 320.198 63.1L319.598 61.4C319.598 61.2667 319.565 61.1333 319.498 61C319.498 60.8667 319.465 60.7333 319.398 60.6L317.898 55.3C317.832 55.1667 317.765 55 317.698 54.8C317.698 54.6 317.632 54.4333 317.498 54.3C317.298 53.9 317.132 53.5 316.998 53.1C316.932 52.6333 316.832 52.1667 316.698 51.7C316.632 51.3667 316.565 51.0667 316.498 50.8C316.432 50.4667 316.332 50.1333 316.198 49.8C316.065 49.4 315.932 49.1667 315.798 49.1C315.665 48.9667 315.365 48.9667 314.898 49.1C314.565 49.1667 314.198 49.2333 313.798 49.3C313.465 49.3 313.132 49.3667 312.798 49.5C312.532 49.5667 312.198 49.6333 311.798 49.7C311.465 49.7 311.132 49.7333 310.798 49.8L309.398 50.1C309.065 50.1667 308.698 50.2667 308.298 50.4C307.965 50.4667 307.632 50.5 307.298 50.5L305.498 50.8C304.965 50.9333 304.398 51.0667 303.798 51.2C303.198 51.3333 302.632 51.4667 302.098 51.6C300.498 52 298.898 52.3 297.298 52.5C296.765 52.6333 296.465 52.8667 296.398 53.2C296.332 53.2 296.298 53.2333 296.298 53.3C295.898 54.3667 295.432 55.4333 294.898 56.5C294.432 57.5 293.932 58.5333 293.398 59.6C293.265 59.8667 293.132 60.1333 292.998 60.4C292.932 60.6 292.832 60.8333 292.698 61.1C292.632 61.2333 292.565 61.4 292.498 61.6C292.432 61.7333 292.365 61.8667 292.298 62C291.898 62.4667 291.698 63.0333 291.698 63.7C291.632 64.1 291.498 64.5 291.298 64.9C291.098 65.2333 290.898 65.5667 290.698 65.9C290.632 66.1 290.498 66.2 290.298 66.2C290.032 66.2667 289.765 66.3667 289.498 66.5C289.232 66.6333 288.932 66.7667 288.598 66.9C288.398 66.9667 288.198 66.9667 287.998 66.9C287.865 66.8333 287.698 66.7667 287.498 66.7C287.365 66.5667 287.232 66.5 287.098 66.5C286.365 66.4333 285.832 66 285.498 65.2C284.965 64.1333 284.598 63.0667 284.398 62C284.332 61.7333 284.332 61.5 284.398 61.3C284.532 61.1 284.632 60.9 284.698 60.7C285.098 60.4333 285.332 60.1333 285.398 59.8V59.7C285.398 58.8333 285.565 58.0333 285.898 57.3C286.298 56.5 286.632 55.7333 286.898 55C287.032 54.6 287.198 54.2 287.398 53.8C287.598 53.4 287.798 53 287.998 52.6C288.265 52.1333 288.465 51.7 288.598 51.3C288.798 50.8333 288.965 50.3667 289.098 49.9C289.298 49.3667 289.298 48.8667 289.098 48.4C288.965 48 288.898 47.6333 288.898 47.3C288.898 46.9 288.932 46.5 288.998 46.1C288.998 45.3667 289.265 44.7333 289.798 44.2C290.065 43.8667 290.332 43.6 290.598 43.4C290.932 43.1333 291.232 42.8667 291.498 42.6C292.098 42 292.565 41.2 292.898 40.2C293.165 39.3333 293.365 38.4667 293.498 37.6C293.698 36.6667 293.898 35.7667 294.098 34.9C294.232 34.0333 294.365 33.2 294.498 32.4C294.698 31.5333 294.898 30.7 295.098 29.9C295.165 29.5667 295.232 29.2667 295.298 29C295.432 28.6667 295.532 28.3667 295.598 28.1C295.798 27.5667 295.998 27.0667 296.198 26.6C296.398 26.0667 296.532 25.5333 296.598 25C296.732 24.7333 296.732 24.5 296.598 24.3C296.532 23.9667 296.532 23.6667 296.598 23.4C296.732 23.1333 296.832 22.8667 296.898 22.6C297.098 22.1333 297.232 21.6667 297.298 21.2C297.432 20.7333 297.598 20.2667 297.798 19.8C298.132 18.9333 298.398 18.2333 298.598 17.7C298.865 17.1 299.098 16.4333 299.298 15.7C299.432 15.3 299.565 14.9333 299.698 14.6C299.898 14.2 300.032 13.8 300.098 13.4C300.298 12.8 300.465 12.2 300.598 11.6C300.732 10.9333 300.798 10.3 300.798 9.7C300.932 9.16667 301.065 8.8 301.198 8.6C301.532 7.93333 301.932 7.36666 302.398 6.9C302.932 6.43333 303.432 5.96666 303.898 5.5C304.232 5.3 304.565 5.16666 304.898 5.1C305.232 4.96666 305.565 5 305.898 5.2C306.165 5.33333 306.332 5.4 306.398 5.4C306.998 5.33333 307.498 5.46667 307.898 5.8C308.298 6.13333 308.632 6.53333 308.898 6.99999C309.032 7.13333 309.132 7.3 309.198 7.5C309.265 7.7 309.332 7.86666 309.398 8C309.732 8.53333 309.898 9.06666 309.898 9.6C309.898 9.86666 309.932 10.1667 309.998 10.5C310.065 10.7667 310.132 11.0667 310.198 11.4C310.398 11.8 310.698 12 311.098 12C311.165 11.9333 311.232 11.9333 311.298 12C311.365 12.0667 311.398 12.1333 311.398 12.2C311.732 12.6 311.832 13.0333 311.698 13.5C311.565 14.0333 311.532 14.5667 311.598 15.1C311.732 15.5667 311.865 16.0667 311.998 16.6C312.265 17.2667 312.532 17.9333 312.798 18.6C313.065 19.2667 313.332 19.9333 313.598 20.6C313.932 21.3333 314.265 22.0667 314.598 22.8C314.932 23.5333 315.232 24.2667 315.498 25C315.832 25.9333 316.165 26.8667 316.498 27.8C316.898 28.7333 317.332 29.6667 317.798 30.6L318.098 31.7C318.165 31.9667 318.232 32.2333 318.298 32.5C318.432 32.7667 318.532 33.0333 318.598 33.3C318.732 33.5 318.832 33.7 318.898 33.9C319.032 34.1 319.165 34.2667 319.298 34.4C319.632 34.8667 319.832 35.3667 319.898 35.9C320.098 36.5667 320.398 37.1667 320.798 37.7C320.932 37.9 321.132 38 321.398 38C322.398 37.8667 323.398 37.7667 324.398 37.7C325.398 37.5667 326.398 37.3667 327.398 37.1C328.132 36.9 328.832 36.8 329.498 36.8C330.765 36.8 331.932 37.2333 332.998 38.1C334.265 39.1 334.932 40.3667 334.998 41.9C334.998 42.2333 335.032 42.5 335.098 42.7C335.098 43.1667 334.965 43.5333 334.698 43.8C334.632 44 334.498 44.2 334.298 44.4C334.165 44.6 334.032 44.8 333.898 45C333.765 45.2667 333.632 45.4667 333.498 45.6L332.898 46.1C332.832 46.2333 332.732 46.4 332.598 46.6C332.465 46.7333 332.298 46.8333 332.098 46.9C331.832 46.9667 331.565 47.0667 331.298 47.2C331.032 47.2667 330.732 47.3 330.398 47.3C329.198 47.4333 328.132 47.4 327.198 47.2H325.598C325.465 47.2 325.265 47.2667 324.998 47.4C324.732 47.5333 324.598 47.7 324.598 47.9V48.3C324.798 48.9 324.932 49.5333 324.998 50.2C325.132 50.8 325.332 51.3667 325.598 51.9C325.598 52.1667 325.665 52.4333 325.798 52.7C326.132 53.3 326.398 53.9333 326.598 54.6C326.798 55.2 326.965 55.8333 327.098 56.5C327.098 56.6333 327.165 56.9 327.298 57.3C327.498 57.7667 327.665 58.2667 327.798 58.8C327.932 59.2667 328.032 59.7667 328.098 60.3C328.098 60.7 328.198 61.0667 328.398 61.4C328.665 62 328.865 62.6 328.998 63.2C329.132 63.8 329.232 64.4333 329.298 65.1C329.365 65.1667 329.398 65.3 329.398 65.5C329.398 65.6333 329.432 65.7667 329.498 65.9C329.832 66.6333 330.065 67.4333 330.198 68.3C330.332 69.1 330.498 69.9 330.698 70.7C330.832 71.1 330.898 71.5 330.898 71.9C330.965 72.3667 330.998 72.8333 330.998 73.3C330.998 73.6333 330.898 74 330.698 74.4C330.498 74.6 330.398 74.7 330.398 74.7C329.998 74.7667 329.765 75 329.698 75.4L329.398 76C329.265 76.2667 329.065 76.4333 328.798 76.5C328.532 76.5 328.298 76.6 328.098 76.8C327.832 77.0667 327.465 77.2 326.998 77.2C326.732 77.2 326.398 77.2 325.998 77.2C325.665 77.2 325.332 77.2333 324.998 77.3ZM300.898 41C301.298 40.9333 301.698 40.8667 302.098 40.8C302.565 40.7333 303.065 40.6667 303.598 40.6C303.932 40.5333 304.365 40.4667 304.898 40.4C305.432 40.3333 305.932 40.2667 306.398 40.2C306.865 40.0667 307.332 40 307.798 40C308.265 39.9333 308.732 39.8667 309.198 39.8C309.598 39.6667 309.998 39.6 310.398 39.6C310.798 39.5333 311.198 39.4667 311.598 39.4C312.198 39.2667 312.432 38.9333 312.298 38.4C312.232 37.8667 312.098 37.3333 311.898 36.8C311.765 36.2 311.465 35.7 310.998 35.3C310.865 35.1667 310.798 34.9667 310.798 34.7V34.4C310.665 33.8667 310.498 33.3667 310.298 32.9C310.165 32.3667 309.998 31.8667 309.798 31.4C309.665 30.8667 309.498 30.4 309.298 30C309.165 29.5333 308.998 29.0667 308.798 28.6L307.598 25C307.398 24.5333 307.198 24.0667 306.998 23.6C306.865 23.1333 306.732 22.6667 306.598 22.2L306.298 21.8H305.998L305.798 22.1C305.465 23.1 305.065 24.1 304.598 25.1C304.198 26.1 303.832 27.1667 303.498 28.3C303.498 28.4333 303.465 28.6 303.398 28.8C303.332 29 303.265 29.2 303.198 29.4C302.932 30.0667 302.665 30.8 302.398 31.6C302.198 32.4 302.032 33.2 301.898 34C301.832 34.4667 301.765 34.9333 301.698 35.4C301.632 35.8 301.532 36.2333 301.398 36.7L300.498 40.6C300.432 40.6667 300.465 40.7667 300.598 40.9C300.732 40.9667 300.832 41 300.898 41ZM351.78 72C350.514 72.1333 349.48 71.7333 348.68 70.8C348.28 70.4 347.914 69.9667 347.58 69.5C347.247 69.0333 346.98 68.5333 346.78 68C346.447 67.0667 346.147 66.1333 345.88 65.2C345.614 64.2 345.38 63.2333 345.18 62.3C344.98 61.5667 344.88 60.8667 344.88 60.2C344.814 59.4667 344.714 58.7667 344.58 58.1C344.514 57.3667 344.48 56.6333 344.48 55.9C344.48 55.5 344.48 55.1 344.48 54.7C344.48 54.2333 344.447 53.8 344.38 53.4C344.314 53.1333 344.28 52.9 344.28 52.7C344.28 52.5 344.28 52.2667 344.28 52C344.28 51.0667 344.28 50.1333 344.28 49.2C344.28 48.2 344.247 47.2333 344.18 46.3C344.18 45.7667 344.147 45.3 344.08 44.9C344.014 44.4333 343.88 43.9667 343.68 43.5C343.414 42.7667 343.38 41.9667 343.58 41.1C343.58 40.9 343.614 40.7667 343.68 40.7C343.814 40.2333 343.88 39.7667 343.88 39.3C343.947 38.8333 343.947 38.3667 343.88 37.9C343.814 37.5667 343.78 37.2333 343.78 36.9C343.78 36.5667 343.78 36.2667 343.78 36C343.714 35.2667 343.68 34.5333 343.68 33.8C343.747 33 343.814 32.2333 343.88 31.5C343.947 31.3 343.98 31.1 343.98 30.9C343.98 30.7 343.98 30.5 343.98 30.3C343.914 29.5667 343.914 28.8667 343.98 28.2C344.114 27.5333 344.214 26.8667 344.28 26.2C344.414 25.4 344.547 24.6333 344.68 23.9C344.814 23.1 344.98 22.3 345.18 21.5C345.314 21.1667 345.38 20.8 345.38 20.4C345.38 20 345.38 19.6 345.38 19.2C345.38 18.8667 345.347 18.5333 345.28 18.2C345.28 17.8667 345.28 17.5667 345.28 17.3C345.28 17.1 345.28 16.9 345.28 16.7C345.28 16.5 345.314 16.3 345.38 16.1C345.447 15.9 345.48 15.7 345.48 15.5C345.48 15.3 345.514 15.1667 345.58 15.1C345.78 14.8333 345.947 14.6 346.08 14.4C346.214 14.1333 346.414 13.9 346.68 13.7C347.014 13.5 347.314 13.3 347.58 13.1C347.914 12.9 348.214 12.7333 348.48 12.6C348.814 12.4667 349.08 12.3 349.28 12.1C349.547 11.7667 349.814 11.4667 350.08 11.2C350.414 10.8667 350.68 10.5 350.88 10.1C351.214 9.76666 351.547 9.4 351.88 9C352.28 8.53333 352.714 8.16666 353.18 7.89999C353.314 7.83333 353.514 7.66666 353.78 7.4C354.58 6.66666 355.514 6.2 356.58 6C356.78 5.93333 356.947 5.9 357.08 5.9C357.28 5.83333 357.48 5.8 357.68 5.8L358.38 5.5C358.914 5.3 359.38 5.4 359.78 5.8C359.914 6 360.08 6.19999 360.28 6.4C360.547 6.53333 360.78 6.66667 360.98 6.8C361.514 7.26667 362.014 7.76667 362.48 8.3C363.014 8.83333 363.48 9.43333 363.88 10.1C364.547 11.1667 365.114 12.2333 365.58 13.3C366.114 14.3667 366.614 15.4667 367.08 16.6L368.88 20.9C368.947 21.3 369.114 21.6667 369.38 22C369.914 23 370.314 24.0333 370.58 25.1C370.847 26.1 371.114 27.1333 371.38 28.2C371.447 28.3333 371.48 28.4667 371.48 28.6C371.547 28.7333 371.58 28.8667 371.58 29C371.714 29.5333 371.814 30.1 371.88 30.7C372.014 31.2333 372.047 31.7667 371.98 32.3C372.047 32.9 372.014 33.5 371.88 34.1C371.814 34.6333 371.714 35.1667 371.58 35.7C371.38 36.3667 371.147 37 370.88 37.6C370.614 38.1333 370.314 38.7 369.98 39.3C369.847 39.7 369.614 40.0667 369.28 40.4C368.947 40.7333 368.614 41.0333 368.28 41.3C367.747 41.5667 367.214 41.9667 366.68 42.5C366.547 42.6333 366.38 42.7333 366.18 42.8C366.047 42.8667 365.914 42.9667 365.78 43.1C365.314 43.3 364.814 43.5333 364.28 43.8C363.747 44 363.214 44.2 362.68 44.4C362.614 44.4 362.58 44.4667 362.58 44.6C362.58 44.6667 362.614 44.7333 362.68 44.8L365.38 46.7C365.714 46.9 366.014 47.1 366.28 47.3C366.547 47.4333 366.814 47.6 367.08 47.8L367.68 48.1C368.48 48.5667 369.28 49.0667 370.08 49.6C370.88 50.1333 371.647 50.6667 372.38 51.2C373.78 52.0667 375.18 52.9667 376.58 53.9C377.98 54.7667 379.314 55.7333 380.58 56.8C381.714 57.6667 382.714 58.6667 383.58 59.8C383.78 60 383.98 60.2333 384.18 60.5C384.38 60.7 384.614 60.8667 384.88 61L385.18 61.3C386.247 62.2333 386.847 63.5 386.98 65.1C386.98 65.3 386.947 65.5 386.88 65.7C386.88 65.9 386.88 66.1 386.88 66.3C386.88 66.7 386.747 67.0333 386.48 67.3C386.214 67.4333 386.08 67.6 386.08 67.8C385.88 68.2667 385.58 68.6 385.18 68.8C384.847 68.9333 384.514 69.1333 384.18 69.4C384.047 69.4667 383.814 69.5 383.48 69.5C383.08 69.4333 382.647 69.3667 382.18 69.3C381.78 69.2333 381.38 69.2 380.98 69.2C380.447 69.2 379.88 68.9667 379.28 68.5C378.88 68.1667 378.514 67.8667 378.18 67.6C377.847 67.2667 377.514 66.8667 377.18 66.4C376.314 65.2 375.18 64.1 373.78 63.1C373.114 62.5667 372.48 62.0667 371.88 61.6C371.28 61.1333 370.614 60.7 369.88 60.3C369.414 60.0333 368.947 59.7667 368.48 59.5C368.08 59.1667 367.614 58.8667 367.08 58.6C365.414 57.4667 363.714 56.3667 361.98 55.3C360.247 54.1667 358.514 53.0333 356.78 51.9C356.514 51.7 356.214 51.5 355.88 51.3C355.547 51.1 355.214 50.9 354.88 50.7C354.747 50.5667 354.547 50.4333 354.28 50.3C354.014 50.3 353.88 50.4 353.88 50.6C353.88 50.6667 353.847 50.7333 353.78 50.8C353.78 50.8 353.78 50.8333 353.78 50.9C353.78 51.1 353.78 51.3 353.78 51.5C353.78 51.7 353.814 51.9 353.88 52.1C353.947 52.6333 353.98 53.1667 353.98 53.7C353.98 54.1667 353.98 54.6667 353.98 55.2C353.98 55.6 353.98 56 353.98 56.4C354.047 56.7333 354.114 57.1 354.18 57.5C354.18 57.7 354.18 57.9333 354.18 58.2C354.247 58.4 354.28 58.6 354.28 58.8C354.214 59.4 354.247 60 354.38 60.6C354.514 61.2 354.614 61.8 354.68 62.4L355.28 65C355.347 65.2667 355.414 65.5667 355.48 65.9C355.547 66.1667 355.614 66.4667 355.68 66.8C355.747 67.0667 355.747 67.3333 355.68 67.6C355.68 67.8 355.647 68.0333 355.58 68.3C355.58 68.3667 355.514 68.4667 355.38 68.6C355.047 68.6667 354.814 68.9 354.68 69.3C354.48 69.7667 354.18 70.1667 353.78 70.5C353.447 70.9 353.08 71.2667 352.68 71.6C352.614 71.6667 352.48 71.7333 352.28 71.8C352.08 71.8667 351.914 71.9333 351.78 72ZM355.68 37H355.88C356.614 36.8667 357.347 36.7333 358.08 36.6C358.88 36.4 359.647 36.1667 360.38 35.9C361.114 35.7 361.747 35.3333 362.28 34.8C362.747 34.3333 362.98 33.8 362.98 33.2C363.047 32.7333 363.047 32.3 362.98 31.9C362.98 31.4333 362.914 30.9667 362.78 30.5C362.514 29.3 362.214 28.1333 361.88 27C361.547 25.8 361.147 24.6667 360.68 23.6L359.78 21.2C359.58 20.5333 359.347 19.9 359.08 19.3C358.814 18.6333 358.514 18 358.18 17.4C358.114 17.2667 358.047 17.1333 357.98 17C357.914 16.8 357.847 16.6333 357.78 16.5L357.38 16.1C357.18 15.8333 356.947 15.8333 356.68 16.1C356.614 16.1 356.514 16.1667 356.38 16.3C355.914 16.9 355.48 17.5333 355.08 18.2C354.747 18.8667 354.547 19.6 354.48 20.4C354.414 20.6667 354.347 20.9333 354.28 21.2C354.28 21.4667 354.28 21.7667 354.28 22.1V26.4C354.214 27.3333 354.18 28.3 354.18 29.3C354.247 30.3 354.214 31.2667 354.08 32.2C354.014 32.4 353.98 32.6 353.98 32.8C354.047 33 354.08 33.2 354.08 33.4C354.147 33.8 354.18 34.2 354.18 34.6C354.18 34.9333 354.18 35.3 354.18 35.7C354.18 36.3667 354.247 36.7667 354.38 36.9C354.58 37.0333 355.014 37.0667 355.68 37ZM435.878 75.9H435.378C435.178 75.9 434.945 75.8667 434.678 75.8C434.478 75.8 434.245 75.8 433.978 75.8C433.511 75.8667 433.111 75.7667 432.778 75.5C432.511 75.3 432.211 75.0333 431.878 74.7C431.745 74.5667 431.578 74.4 431.378 74.2C431.245 74.0667 431.078 73.9667 430.878 73.9C430.745 73.8333 430.611 73.6667 430.478 73.4C430.411 73.2667 430.311 73.1 430.178 72.9C430.111 72.7 430.011 72.5 429.878 72.3C429.745 71.9667 429.711 71.6 429.778 71.2C429.845 71 429.878 70.8 429.878 70.6C429.945 70.4667 429.978 70.3 429.978 70.1C429.978 69.4333 429.978 68.8 429.978 68.2C429.978 67.5333 429.911 66.8667 429.778 66.2C429.711 66 429.678 65.8 429.678 65.6C429.678 65.3333 429.645 65.0667 429.578 64.8C429.578 64.3333 429.545 63.9667 429.478 63.7C429.478 63.3667 429.445 63.0667 429.378 62.8C429.378 62.5333 429.378 62.2667 429.378 62C429.311 61.5333 429.278 61.1 429.278 60.7C429.278 60.3 429.211 59.8667 429.078 59.4V59.1C429.078 58.2333 429.011 57.4 428.878 56.6C428.811 55.7333 428.778 54.8667 428.778 54C428.778 53.6 428.745 53.3 428.678 53.1C428.611 52.5 428.545 51.9 428.478 51.3C428.478 50.6333 428.478 49.9667 428.478 49.3C428.478 48.7 428.478 48.1 428.478 47.5C428.478 46.8333 428.411 46.2 428.278 45.6C428.211 45.4667 428.178 45.3 428.178 45.1C428.178 44.9 428.178 44.7333 428.178 44.6C428.178 41.8667 428.178 39.1333 428.178 36.4C428.178 33.6667 428.211 30.9667 428.278 28.3C428.278 27.9667 428.278 27.6333 428.278 27.3C428.345 26.9667 428.378 26.6333 428.378 26.3C428.378 26.1 428.378 25.9 428.378 25.7C428.445 25.5 428.478 25.3333 428.478 25.2C428.478 24.4667 428.478 23.7333 428.478 23C428.545 22.2 428.611 21.4333 428.678 20.7C428.811 20.5 428.811 20.2333 428.678 19.9C428.611 19.8333 428.511 19.8 428.378 19.8L428.078 20.1C427.945 20.3 427.778 20.5 427.578 20.7C427.378 20.9 427.211 21.1 427.078 21.3C426.811 21.7 426.511 22.1333 426.178 22.6C425.911 23 425.611 23.4333 425.278 23.9C424.811 24.7 424.311 25.5333 423.778 26.4C423.245 27.2 422.845 28.0667 422.578 29C422.511 29.1333 422.445 29.3 422.378 29.5C422.311 29.6333 422.245 29.7667 422.178 29.9C421.911 30.5667 421.611 31.2333 421.278 31.9C421.011 32.5 420.745 33.1667 420.478 33.9C420.078 34.7667 419.511 35.5667 418.778 36.3C418.645 36.4333 418.511 36.5 418.378 36.5C418.045 36.7 417.678 36.9 417.278 37.1C416.878 37.2333 416.445 37.2667 415.978 37.2H415.378C414.778 37.3333 414.278 37.2 413.878 36.8C413.411 36.6667 413.011 36.4333 412.678 36.1C412.411 35.7667 412.111 35.4 411.778 35C411.511 34.6667 411.278 34.2667 411.078 33.8C410.945 33.3333 410.878 32.8667 410.878 32.4C410.811 32.2667 410.778 32.1 410.778 31.9C410.778 31.7 410.778 31.5333 410.778 31.4C410.711 31.2667 410.645 31.1333 410.578 31C410.511 30.8 410.478 30.6667 410.478 30.6C410.478 30.4667 410.411 30.2667 410.278 30C410.145 29.7333 409.878 29.2 409.478 28.4C409.078 27.6 408.878 27.2333 408.878 27.3C408.678 26.9667 408.478 26.6 408.278 26.2C408.078 25.8 407.845 25.4333 407.578 25.1L406.978 24C406.845 24 406.745 23.9667 406.678 23.9L406.578 24C406.578 24.2 406.578 24.4 406.578 24.6C406.578 24.8 406.611 25 406.678 25.2C406.811 25.9333 406.878 26.6667 406.878 27.4C406.878 28.1333 406.811 28.8667 406.678 29.6C406.678 30 406.711 30.3333 406.778 30.6C406.845 30.7333 406.878 30.9667 406.878 31.3C406.878 31.7 406.878 32.1 406.878 32.5C406.945 32.9 406.945 33.3 406.878 33.7C406.811 34.0333 406.778 34.4 406.778 34.8C406.845 35.1333 406.911 35.4667 406.978 35.8V36.8C406.845 37.2 406.845 37.6333 406.978 38.1C407.045 38.4333 407.045 38.8 406.978 39.2C406.978 39.5333 407.011 39.8667 407.078 40.2C407.078 40.5333 407.011 40.9667 406.878 41.5C406.478 43.1 406.578 44.6333 407.178 46.1C407.245 46.3667 407.311 46.6333 407.378 46.9C407.445 47.1 407.445 47.3333 407.378 47.6C407.378 47.8 407.378 48 407.378 48.2C407.378 48.4 407.411 48.6 407.478 48.8C407.611 49.0667 407.678 49.3333 407.678 49.6C407.745 50.3333 407.778 50.9 407.778 51.3C407.845 51.7 407.911 52 407.978 52.2C408.111 52.9333 408.245 53.7 408.378 54.5C408.511 55.2333 408.645 55.9667 408.778 56.7C408.911 57.5667 409.045 58.4333 409.178 59.3C409.378 60.1 409.478 60.9333 409.478 61.8C409.478 62.0667 409.511 62.2667 409.578 62.4C409.711 62.9333 409.778 63.5 409.778 64.1C409.778 64.6333 409.811 65.1667 409.878 65.7C409.878 66.4333 409.711 67 409.378 67.4C409.245 67.6667 409.178 67.8333 409.178 67.9C408.578 69.1667 407.511 69.9 405.978 70.1C405.778 70.1667 405.578 70.2 405.378 70.2C405.178 70.2 404.978 70.2 404.778 70.2C404.045 70.3333 403.511 70.2 403.178 69.8C403.045 69.6667 402.911 69.6 402.778 69.6C402.445 69.6667 402.111 69.4667 401.778 69C401.578 68.6667 401.278 68.3667 400.878 68.1C400.678 67.9 400.511 67.5667 400.378 67.1C400.311 66.9667 400.245 66.8333 400.178 66.7C400.178 66.5667 400.178 66.4333 400.178 66.3C400.111 65.3667 400.011 64.4667 399.878 63.6C399.745 62.6667 399.645 61.7667 399.578 60.9L399.478 59.9C399.411 59.6333 399.378 59.4 399.378 59.2C399.378 59 399.345 58.7667 399.278 58.5V57.9C399.078 56.9667 398.978 56.0333 398.978 55.1C398.978 54.1 399.011 53.1333 399.078 52.2C399.145 51.6 399.178 51 399.178 50.4C399.178 49.7333 399.211 49.1 399.278 48.5V46.2C399.278 45.8667 399.278 45.5333 399.278 45.2C399.278 44.8 399.245 44.4333 399.178 44.1C399.111 43.7 399.078 43.3 399.078 42.9C399.078 42.5 399.078 42.1 399.078 41.7V37.1C399.011 36.5667 398.978 36.0333 398.978 35.5C398.978 34.9 398.978 34.3333 398.978 33.8C398.978 33.6 398.978 33.4 398.978 33.2C398.978 32.9333 398.945 32.7 398.878 32.5C398.878 32.1667 398.845 31.8667 398.778 31.6C398.778 31.2667 398.745 30.9667 398.678 30.7V30C398.545 29.4 398.478 28.8333 398.478 28.3C398.478 27.7 398.478 27.1 398.478 26.5C398.478 25.9667 398.478 25.4333 398.478 24.9C398.478 24.3 398.411 23.7667 398.278 23.3C398.211 23.1 398.178 22.9 398.178 22.7C398.178 22.5 398.178 22.3 398.178 22.1C398.178 21.6333 398.178 21.2 398.178 20.8C398.178 20.3333 398.111 19.8667 397.978 19.4C397.911 19.2667 397.878 19.0333 397.878 18.7V13.7C397.878 13.3667 397.878 13.0667 397.878 12.8C397.878 12.4667 397.811 12.1667 397.678 11.9C397.478 11.2333 397.511 10.4667 397.778 9.6C397.911 9.26666 398.045 9.03333 398.178 8.9C398.311 8.7 398.445 8.5 398.578 8.3C398.711 8.1 398.811 7.9 398.878 7.7C399.011 7.5 399.111 7.4 399.178 7.4C399.445 7.33333 399.645 7.23333 399.778 7.1C399.978 6.96666 400.145 6.83333 400.278 6.7L400.878 6.4C401.011 6.33333 401.211 6.3 401.478 6.3C401.811 6.36666 402.145 6.43333 402.478 6.49999C402.878 6.49999 403.245 6.53333 403.578 6.6C403.978 6.6 404.278 6.76667 404.478 7.1C404.811 7.56666 405.145 8.03333 405.478 8.5C405.811 8.96666 406.078 9.46666 406.278 10C406.478 10.4667 406.745 10.8667 407.078 11.2C407.478 11.7333 407.878 12.2667 408.278 12.8C408.678 13.3333 409.111 13.8667 409.578 14.4C409.778 14.6 409.945 14.8333 410.078 15.1C410.278 15.3667 410.445 15.6333 410.578 15.9C410.911 16.3667 411.211 16.8333 411.478 17.3C411.811 17.7 412.145 18.1333 412.478 18.6L413.978 21C414.111 21.2667 414.245 21.5333 414.378 21.8C414.511 22 414.645 22.2 414.778 22.4C414.911 22.7333 415.111 22.7667 415.378 22.5C415.645 22.1667 415.911 21.8333 416.178 21.5C416.511 21.1 416.811 20.7333 417.078 20.4C417.678 19.6667 418.278 18.9 418.878 18.1C419.478 17.3 420.111 16.5333 420.778 15.8L421.378 14.9C421.845 14.2333 422.278 13.6 422.678 13C423.145 12.3333 423.578 11.6667 423.978 11C424.445 10.2667 424.845 9.53333 425.178 8.8C425.578 8.06666 425.911 7.33333 426.178 6.6L427.378 3.9C427.778 3.1 428.345 2.43333 429.078 1.89999C430.078 1.1 431.178 0.799997 432.378 0.999994C432.845 1.06666 433.278 1.2 433.678 1.4C434.078 1.53333 434.478 1.66666 434.878 1.8C435.278 1.93333 435.545 2.23333 435.678 2.7C435.811 2.9 435.911 3.1 435.978 3.29999C436.045 3.5 436.078 3.7 436.078 3.9C436.145 4.36666 436.245 4.8 436.378 5.2C436.511 5.53333 436.611 5.93333 436.678 6.4L436.778 7.4C436.911 8 437.045 8.6 437.178 9.2C437.378 9.8 437.545 10.4 437.678 11V11.2C437.745 11.8667 437.811 12.5333 437.878 13.2C438.011 13.8 438.045 14.4333 437.978 15.1V17.4C437.978 17.7333 437.978 18.0667 437.978 18.4C437.978 18.7333 437.945 19.0667 437.878 19.4C437.811 19.8667 437.778 20.3333 437.778 20.8C437.778 21.2 437.778 21.6333 437.778 22.1C437.711 22.3667 437.678 22.6333 437.678 22.9C437.678 23.1667 437.645 23.4333 437.578 23.7C437.511 23.9667 437.478 24.2333 437.478 24.5C437.478 24.7 437.478 24.9667 437.478 25.3V28.1C437.478 28.5667 437.445 29 437.378 29.4C437.378 29.8 437.345 30.2333 437.278 30.7C437.211 30.9667 437.178 31.2333 437.178 31.5C437.178 31.7 437.178 31.9333 437.178 32.2V38.3C437.178 38.7667 437.178 39.2333 437.178 39.7C437.245 40.1667 437.311 40.6333 437.378 41.1C437.445 41.4333 437.478 41.8 437.478 42.2C437.478 42.5333 437.478 42.8667 437.478 43.2C437.545 43.6667 437.578 44.1333 437.578 44.6C437.578 45 437.611 45.4667 437.678 46V47.1C437.745 47.6333 437.778 48.2 437.778 48.8C437.778 49.3333 437.778 49.8667 437.778 50.4V51.7C437.911 52.1667 437.978 52.6667 437.978 53.2C437.978 53.7333 438.011 54.2667 438.078 54.8V55.5C438.211 55.9 438.278 56.3 438.278 56.7C438.278 57.1 438.311 57.5 438.378 57.9L438.678 61.5C438.745 61.7667 438.778 62.0333 438.778 62.3C438.845 62.5 438.878 62.7333 438.878 63C438.945 63.2667 438.978 63.5333 438.978 63.8C438.978 64 439.011 64.2333 439.078 64.5C439.078 64.5667 439.078 64.6667 439.078 64.8C439.145 64.9333 439.178 65.0667 439.178 65.2C439.178 65.6667 439.211 66.1667 439.278 66.7C439.411 67.2333 439.511 67.7667 439.578 68.3L439.978 71.1C439.978 71.5 439.945 71.7667 439.878 71.9C439.811 72.3 439.645 72.6667 439.378 73C439.178 73.4 439.011 73.7667 438.878 74.1C438.878 74.1667 438.845 74.2 438.778 74.2C438.311 74.6 437.845 74.9333 437.378 75.2C436.911 75.5333 436.411 75.7667 435.878 75.9ZM465.53 70.7C465.13 70.7 464.863 70.6667 464.73 70.6C464.396 70.4667 464.063 70.4 463.73 70.4C463.463 70.4667 463.163 70.5 462.83 70.5C462.763 70.5 462.696 70.5 462.63 70.5C462.563 70.5667 462.496 70.6 462.43 70.6C461.963 70.6667 461.496 70.7 461.03 70.7C460.63 70.7 460.23 70.6333 459.83 70.5C459.763 70.4333 459.696 70.4 459.63 70.4C459.163 70.4667 458.763 70.3333 458.43 70C458.096 69.6667 457.763 69.3667 457.43 69.1C457.096 68.7667 456.93 68.4 456.93 68L456.63 67.2C456.43 66.7333 456.363 66.3 456.43 65.9C456.496 65.7667 456.496 65.6333 456.43 65.5C456.43 65.3667 456.43 65.2333 456.43 65.1C456.363 64.9667 456.33 64.8333 456.33 64.7C456.33 64.5 456.296 64.3333 456.23 64.2C456.096 63.6 455.996 63 455.93 62.4C455.93 61.7333 455.963 61.1 456.03 60.5C456.096 60.1 456.33 59.4333 456.73 58.5C457.13 57.5 457.363 56.9 457.43 56.7C457.63 56.3667 457.73 56.1 457.73 55.9C457.663 55.1667 457.63 54.4333 457.63 53.7C457.696 52.9 457.73 52.1333 457.73 51.4C457.73 50.9333 457.83 50.5667 458.03 50.3C458.296 49.8333 458.33 49.3333 458.13 48.8L457.83 47.7C457.43 46.9667 457.463 46.3333 457.93 45.8C457.93 45.7333 457.93 45.7 457.93 45.7C457.996 45.6333 458.03 45.5667 458.03 45.5C458.163 45.3667 458.196 45.2 458.13 45C458.063 44.7333 458.03 44.5333 458.03 44.4C458.03 44.1333 458.063 43.8667 458.13 43.6C458.263 43.2667 458.296 42.9667 458.23 42.7C458.23 42.7 458.163 42.6333 458.03 42.5C457.963 42.3667 457.93 42.1 457.93 41.7C457.996 41.3 458.03 41.0667 458.03 41V38.2C458.096 37.8667 458.13 37.5667 458.13 37.3C458.13 36.9667 458.163 36.6333 458.23 36.3C458.296 35.9 458.296 35.5 458.23 35.1C458.23 34.6333 458.23 34.1667 458.23 33.7C458.163 33.3667 458.096 33 458.03 32.6C458.03 32.2 458.03 31.8 458.03 31.4C457.963 31.2667 457.93 31.1 457.93 30.9C457.93 30.7 457.93 30.5333 457.93 30.4C457.863 30.0667 457.796 29.7333 457.73 29.4C457.73 29.0667 457.73 28.7333 457.73 28.4C457.73 28.2667 457.596 27.8333 457.33 27.1C457.063 26.3 456.963 25.6333 457.03 25.1C457.096 24.9667 457.13 24.8 457.13 24.6C457.13 24.4 457.063 24.2333 456.93 24.1C456.796 24.0333 456.73 23.9 456.73 23.7V23.4C456.93 22.6 456.83 21.8 456.43 21C456.163 20.6 456.063 20.2 456.13 19.8C456.13 19.2667 455.896 18.8667 455.43 18.6C455.096 18.2667 454.796 17.8667 454.53 17.4C454.263 16.9333 454.096 16.4667 454.03 16C453.963 15.6667 453.93 15.3333 453.93 15C453.93 14.6667 453.93 14.3667 453.93 14.1C453.93 13.8333 453.963 13.6667 454.03 13.6C454.296 13.3333 454.43 13.0333 454.43 12.7C454.43 12.3 454.463 12 454.53 11.8C454.596 11.7333 454.663 11.7 454.73 11.7C454.796 11.7 454.863 11.6667 454.93 11.6C455.196 11.5333 455.33 11.3 455.33 10.9C455.196 10.6333 455.13 10.4 455.13 10.2C455.063 9.93333 455.163 9.7 455.43 9.5C455.563 9.23333 455.73 9.16666 455.93 9.29999C456.396 9.5 456.93 9.43333 457.53 9.1C457.796 8.96667 457.963 8.9 458.03 8.9C458.23 8.9 458.33 8.9 458.33 8.9C458.396 8.83333 458.596 8.8 458.93 8.8C459.33 8.86666 459.696 8.73333 460.03 8.39999C460.496 7.93333 461.063 7.7 461.73 7.7H467.93C469.463 7.76666 470.996 7.76666 472.53 7.7C474.063 7.63333 475.563 7.6 477.03 7.6C477.363 7.6 477.63 7.6 477.83 7.6C478.096 7.53333 478.363 7.46667 478.63 7.4C479.03 7.2 479.496 7.1 480.03 7.1H482.33C482.863 7.1 483.33 7.1 483.73 7.1C484.196 7.03333 484.663 6.96666 485.13 6.9C485.396 6.83333 485.63 6.8 485.83 6.8C486.096 6.8 486.363 6.8 486.63 6.8C486.896 6.8 487.163 6.8 487.43 6.8C487.696 6.8 487.963 6.76666 488.23 6.7C488.763 6.63333 489.33 6.6 489.93 6.6C490.53 6.53333 491.096 6.49999 491.63 6.49999C491.896 6.49999 492.13 6.49999 492.33 6.49999C492.596 6.43333 492.863 6.36666 493.13 6.3C493.663 6.16666 494.163 6.09999 494.63 6.09999C495.163 6.03333 495.663 5.96666 496.13 5.9C496.663 5.83333 497.163 5.76667 497.63 5.7C498.163 5.63333 498.663 5.56666 499.13 5.5C499.73 5.5 500.163 5.56666 500.43 5.7C500.83 5.96666 501.196 6.19999 501.53 6.4C501.93 6.6 502.296 6.86666 502.63 7.2C502.896 7.46667 503.063 7.7 503.13 7.89999C503.196 8.16666 503.263 8.43333 503.33 8.7C503.396 8.96666 503.463 9.26666 503.53 9.6V10.3C503.463 10.6333 503.396 11 503.33 11.4C503.33 11.7333 503.296 12.1 503.23 12.5C503.096 12.7667 502.93 13 502.73 13.2L500.93 15C500.263 15.2 499.596 15.3333 498.93 15.4C498.33 15.4667 497.696 15.4667 497.03 15.4H496.33C495.996 15.4667 495.663 15.5 495.33 15.5C494.996 15.5 494.663 15.4667 494.33 15.4C493.93 15.3333 493.53 15.3333 493.13 15.4C492.73 15.4 492.33 15.4 491.93 15.4C491.663 15.4 491.396 15.4333 491.13 15.5C490.93 15.5 490.696 15.4667 490.43 15.4C490.096 15.3333 489.763 15.3333 489.43 15.4C489.163 15.4 488.863 15.4333 488.53 15.5C488.263 15.5 487.963 15.5333 487.63 15.6C487.363 15.6 487.063 15.6 486.73 15.6C485.863 15.7333 484.93 15.8 483.93 15.8C482.996 15.8 482.063 15.8667 481.13 16C480.53 15.9333 479.963 15.9667 479.43 16.1C478.896 16.1667 478.33 16.2333 477.73 16.3C477.196 16.3667 476.63 16.4 476.03 16.4C475.43 16.4 474.863 16.4667 474.33 16.6C473.663 16.6 472.996 16.7 472.33 16.9C471.73 17.0333 471.096 17.1333 470.43 17.2L469.73 17.3C469.263 17.3 468.83 17.3667 468.43 17.5C468.03 17.5667 467.596 17.6667 467.13 17.8C466.863 17.8667 466.596 17.9333 466.33 18C466.063 18 465.763 18.0333 465.43 18.1C465.23 18.1 464.996 18.1667 464.73 18.3C464.53 18.3667 464.43 18.5667 464.43 18.9L464.73 19.8C464.796 19.9333 464.763 20.2667 464.63 20.8C464.563 21.3333 464.496 21.7333 464.43 22C464.43 22.2 464.463 22.4 464.53 22.6C464.596 22.8 464.663 23 464.73 23.2C464.93 23.7333 465.03 24.3333 465.03 25C465.03 25.6 465.096 26.1667 465.23 26.7C465.296 26.9667 465.33 27.2667 465.33 27.6C465.33 27.8667 465.363 28.1667 465.43 28.5C465.43 28.6333 465.43 28.8 465.43 29C465.496 29.1333 465.53 29.3 465.53 29.5C465.53 29.7 465.496 29.8333 465.43 29.9C465.23 30.1667 465.13 30.4667 465.13 30.8C465.13 31.1333 465.13 31.4667 465.13 31.8C465.463 32.4667 465.63 33.1333 465.63 33.8C465.63 34.4667 465.63 35.1333 465.63 35.8C465.63 36 465.796 36.0667 466.13 36H466.23C466.363 35.7333 466.496 35.5333 466.63 35.4C466.83 35.4 467.063 35.3333 467.33 35.2C467.53 35.0667 467.796 35 468.13 35C468.663 35.0667 469.163 35.0667 469.63 35C470.096 34.8667 470.563 34.7333 471.03 34.6C474.163 33.8 477.096 32.7667 479.83 31.5C480.563 31.1667 481.33 30.9 482.13 30.7C482.93 30.4333 483.73 30.2667 484.53 30.2H484.83C485.43 30.1333 486.03 30.0667 486.63 30C487.23 29.9333 487.83 29.9 488.43 29.9C489.23 29.8333 489.996 29.7333 490.73 29.6C491.53 29.4667 492.33 29.3667 493.13 29.3C493.596 29.1667 494.03 29.0667 494.43 29C494.83 28.8667 495.263 28.7 495.73 28.5C496.596 28.1667 497.396 28 498.13 28C498.663 28.0667 499.163 28.2 499.63 28.4C500.096 28.5333 500.563 28.7333 501.03 29C502.03 29.6667 502.53 30.6667 502.53 32C502.53 32.5333 502.463 33.0667 502.33 33.6C502.263 34.1333 502.23 34.6667 502.23 35.2C502.23 35.3333 502.163 35.4667 502.03 35.6L501.73 36.1C501.663 36.3667 501.596 36.6333 501.53 36.9C501.463 37.1667 501.296 37.3667 501.03 37.5C500.63 37.8333 500.196 38.2 499.73 38.6C499.33 38.9333 498.863 39.1667 498.33 39.3C498.063 39.3667 497.796 39.4333 497.53 39.5C497.33 39.5667 497.096 39.6 496.83 39.6C495.763 39.6 494.663 39.6667 493.53 39.8C492.463 39.9333 491.363 40.0667 490.23 40.2C489.363 40.2667 488.496 40.3667 487.63 40.5C486.83 40.6333 485.996 40.7 485.13 40.7C484.33 40.7 483.43 40.8667 482.43 41.2C481.763 41.3333 481.063 41.4667 480.33 41.6C479.596 41.7333 478.863 41.8333 478.13 41.9C477.596 41.9667 477.03 42.0667 476.43 42.2C475.896 42.2667 475.363 42.3333 474.83 42.4L473.13 42.7C472.996 42.7667 472.796 42.8 472.53 42.8C472.063 42.9333 471.596 43.0333 471.13 43.1C470.663 43.1667 470.196 43.2667 469.73 43.4C469.263 43.4667 468.796 43.5667 468.33 43.7C467.93 43.8333 467.496 43.9667 467.03 44.1C466.696 44.1667 466.43 44.3 466.23 44.5C466.03 44.6333 465.863 44.8333 465.73 45.1C465.663 45.3 465.663 45.5 465.73 45.7C465.796 45.9667 465.763 46.2333 465.63 46.5C465.696 47.1667 465.73 47.8333 465.73 48.5C465.796 49.1667 465.796 49.8333 465.73 50.5C465.863 51.0333 465.896 51.5667 465.83 52.1C465.83 52.6333 465.796 53.1667 465.73 53.7C465.596 54.5 465.63 55.1667 465.83 55.7C466.03 56.5667 465.963 57.4667 465.63 58.4C465.496 58.8 465.496 59.0667 465.63 59.2C465.763 59.4 465.763 59.6333 465.63 59.9V60.5C465.563 61.0333 465.796 61.3 466.33 61.3H466.53C466.996 61.3 467.463 61.4667 467.93 61.8C468.263 62.1333 468.663 62.2333 469.13 62.1L471.93 61.8C472.33 61.7333 472.73 61.7 473.13 61.7C473.53 61.6333 473.93 61.6 474.33 61.6C474.463 61.5333 474.663 61.5667 474.93 61.7C475.263 61.9 475.563 61.9333 475.83 61.8C475.963 61.6667 476.13 61.5667 476.33 61.5C476.596 61.4333 476.796 61.3333 476.93 61.2C477.33 60.8 477.83 60.6667 478.43 60.8C478.963 60.9333 479.396 60.9 479.73 60.7C480.33 60.5 480.896 60.4333 481.43 60.5C481.763 60.5667 482.096 60.5333 482.43 60.4C482.763 60.2667 483.096 60.2 483.43 60.2C483.563 60.2 483.663 60.2333 483.73 60.3C483.796 60.3 483.863 60.2667 483.93 60.2C484.063 60.2 484.196 60.1667 484.33 60.1C484.463 60.0333 484.563 60 484.63 60C485.096 59.8 485.53 59.7333 485.93 59.8C486.263 59.8 486.43 59.8 486.43 59.8C486.696 59.7333 486.93 59.7333 487.13 59.8C487.396 59.8667 487.63 59.9667 487.83 60.1C488.163 60.1667 488.43 60.2667 488.63 60.4C488.896 60.5333 489.163 60.6333 489.43 60.7C489.563 60.7 489.663 60.7333 489.73 60.8C490.063 61.0667 490.463 61.3 490.93 61.5C491.463 61.7 491.763 61.9333 491.83 62.2C491.963 62.6 492.03 63 492.03 63.4C492.03 63.7333 492.063 64.1 492.13 64.5C492.13 64.7 492.096 64.9 492.03 65.1C492.03 65.3 491.996 65.5 491.93 65.7C491.796 65.9667 491.63 66.2667 491.43 66.6C491.296 66.9333 491.096 67.2333 490.83 67.5C490.696 67.6333 490.563 67.7667 490.43 67.9C490.363 68.0333 490.263 68.1667 490.13 68.3C489.863 68.5667 489.563 68.8 489.23 69C488.896 69.2 488.53 69.3 488.13 69.3C487.863 69.3 487.663 69.3333 487.53 69.4C487.263 69.5333 486.996 69.6 486.73 69.6C486.463 69.6 486.163 69.6 485.83 69.6C485.363 69.6667 484.896 69.7333 484.43 69.8C484.03 69.8 483.596 69.7667 483.13 69.7C482.863 69.6333 482.63 69.6333 482.43 69.7C481.763 69.9 481.096 69.9333 480.43 69.8C479.763 69.8 479.096 69.8333 478.43 69.9C477.83 69.9 477.23 69.9 476.63 69.9H475.33C475.13 69.9 474.963 69.9333 474.83 70C474.563 70.1333 474.23 70.2 473.83 70.2C473.496 70.2 473.163 70.1667 472.83 70.1H471.83C471.763 70.1 471.663 70.1 471.53 70.1C471.396 70.1667 471.263 70.1667 471.13 70.1C470.93 70.0333 470.73 70 470.53 70C470.396 70.0667 470.23 70.1333 470.03 70.2C469.896 70.2 469.763 70.2 469.63 70.2C469.563 70.2667 469.463 70.3 469.33 70.3C468.663 70.2333 468.03 70.2333 467.43 70.3C466.83 70.4333 466.196 70.5667 465.53 70.7ZM520.921 72C519.654 72.1333 518.621 71.7333 517.821 70.8C517.421 70.4 517.054 69.9667 516.721 69.5C516.388 69.0333 516.121 68.5333 515.921 68C515.588 67.0667 515.288 66.1333 515.021 65.2C514.754 64.2 514.521 63.2333 514.321 62.3C514.121 61.5667 514.021 60.8667 514.021 60.2C513.954 59.4667 513.854 58.7667 513.721 58.1C513.654 57.3667 513.621 56.6333 513.621 55.9C513.621 55.5 513.621 55.1 513.621 54.7C513.621 54.2333 513.588 53.8 513.521 53.4C513.454 53.1333 513.421 52.9 513.421 52.7C513.421 52.5 513.421 52.2667 513.421 52C513.421 51.0667 513.421 50.1333 513.421 49.2C513.421 48.2 513.388 47.2333 513.321 46.3C513.321 45.7667 513.288 45.3 513.221 44.9C513.154 44.4333 513.021 43.9667 512.821 43.5C512.554 42.7667 512.521 41.9667 512.721 41.1C512.721 40.9 512.754 40.7667 512.821 40.7C512.954 40.2333 513.021 39.7667 513.021 39.3C513.088 38.8333 513.088 38.3667 513.021 37.9C512.954 37.5667 512.921 37.2333 512.921 36.9C512.921 36.5667 512.921 36.2667 512.921 36C512.854 35.2667 512.821 34.5333 512.821 33.8C512.888 33 512.954 32.2333 513.021 31.5C513.088 31.3 513.121 31.1 513.121 30.9C513.121 30.7 513.121 30.5 513.121 30.3C513.054 29.5667 513.054 28.8667 513.121 28.2C513.254 27.5333 513.354 26.8667 513.421 26.2C513.554 25.4 513.688 24.6333 513.821 23.9C513.954 23.1 514.121 22.3 514.321 21.5C514.454 21.1667 514.521 20.8 514.521 20.4C514.521 20 514.521 19.6 514.521 19.2C514.521 18.8667 514.488 18.5333 514.421 18.2C514.421 17.8667 514.421 17.5667 514.421 17.3C514.421 17.1 514.421 16.9 514.421 16.7C514.421 16.5 514.454 16.3 514.521 16.1C514.588 15.9 514.621 15.7 514.621 15.5C514.621 15.3 514.654 15.1667 514.721 15.1C514.921 14.8333 515.088 14.6 515.221 14.4C515.354 14.1333 515.554 13.9 515.821 13.7C516.154 13.5 516.454 13.3 516.721 13.1C517.054 12.9 517.354 12.7333 517.621 12.6C517.954 12.4667 518.221 12.3 518.421 12.1C518.688 11.7667 518.954 11.4667 519.221 11.2C519.554 10.8667 519.821 10.5 520.021 10.1C520.354 9.76666 520.688 9.4 521.021 9C521.421 8.53333 521.854 8.16666 522.321 7.89999C522.454 7.83333 522.654 7.66666 522.921 7.4C523.721 6.66666 524.654 6.2 525.721 6C525.921 5.93333 526.088 5.9 526.221 5.9C526.421 5.83333 526.621 5.8 526.821 5.8L527.521 5.5C528.054 5.3 528.521 5.4 528.921 5.8C529.054 6 529.221 6.19999 529.421 6.4C529.688 6.53333 529.921 6.66667 530.121 6.8C530.654 7.26667 531.154 7.76667 531.621 8.3C532.154 8.83333 532.621 9.43333 533.021 10.1C533.688 11.1667 534.254 12.2333 534.721 13.3C535.254 14.3667 535.754 15.4667 536.221 16.6L538.021 20.9C538.088 21.3 538.254 21.6667 538.521 22C539.054 23 539.454 24.0333 539.721 25.1C539.988 26.1 540.254 27.1333 540.521 28.2C540.588 28.3333 540.621 28.4667 540.621 28.6C540.688 28.7333 540.721 28.8667 540.721 29C540.854 29.5333 540.954 30.1 541.021 30.7C541.154 31.2333 541.188 31.7667 541.121 32.3C541.188 32.9 541.154 33.5 541.021 34.1C540.954 34.6333 540.854 35.1667 540.721 35.7C540.521 36.3667 540.288 37 540.021 37.6C539.754 38.1333 539.454 38.7 539.121 39.3C538.988 39.7 538.754 40.0667 538.421 40.4C538.088 40.7333 537.754 41.0333 537.421 41.3C536.888 41.5667 536.354 41.9667 535.821 42.5C535.688 42.6333 535.521 42.7333 535.321 42.8C535.188 42.8667 535.054 42.9667 534.921 43.1C534.454 43.3 533.954 43.5333 533.421 43.8C532.888 44 532.354 44.2 531.821 44.4C531.754 44.4 531.721 44.4667 531.721 44.6C531.721 44.6667 531.754 44.7333 531.821 44.8L534.521 46.7C534.854 46.9 535.154 47.1 535.421 47.3C535.688 47.4333 535.954 47.6 536.221 47.8L536.821 48.1C537.621 48.5667 538.421 49.0667 539.221 49.6C540.021 50.1333 540.788 50.6667 541.521 51.2C542.921 52.0667 544.321 52.9667 545.721 53.9C547.121 54.7667 548.454 55.7333 549.721 56.8C550.854 57.6667 551.854 58.6667 552.721 59.8C552.921 60 553.121 60.2333 553.321 60.5C553.521 60.7 553.754 60.8667 554.021 61L554.321 61.3C555.388 62.2333 555.988 63.5 556.121 65.1C556.121 65.3 556.088 65.5 556.021 65.7C556.021 65.9 556.021 66.1 556.021 66.3C556.021 66.7 555.888 67.0333 555.621 67.3C555.354 67.4333 555.221 67.6 555.221 67.8C555.021 68.2667 554.721 68.6 554.321 68.8C553.988 68.9333 553.654 69.1333 553.321 69.4C553.188 69.4667 552.954 69.5 552.621 69.5C552.221 69.4333 551.788 69.3667 551.321 69.3C550.921 69.2333 550.521 69.2 550.121 69.2C549.588 69.2 549.021 68.9667 548.421 68.5C548.021 68.1667 547.654 67.8667 547.321 67.6C546.988 67.2667 546.654 66.8667 546.321 66.4C545.454 65.2 544.321 64.1 542.921 63.1C542.254 62.5667 541.621 62.0667 541.021 61.6C540.421 61.1333 539.754 60.7 539.021 60.3C538.554 60.0333 538.088 59.7667 537.621 59.5C537.221 59.1667 536.754 58.8667 536.221 58.6C534.554 57.4667 532.854 56.3667 531.121 55.3C529.388 54.1667 527.654 53.0333 525.921 51.9C525.654 51.7 525.354 51.5 525.021 51.3C524.688 51.1 524.354 50.9 524.021 50.7C523.888 50.5667 523.688 50.4333 523.421 50.3C523.154 50.3 523.021 50.4 523.021 50.6C523.021 50.6667 522.988 50.7333 522.921 50.8C522.921 50.8 522.921 50.8333 522.921 50.9C522.921 51.1 522.921 51.3 522.921 51.5C522.921 51.7 522.954 51.9 523.021 52.1C523.088 52.6333 523.121 53.1667 523.121 53.7C523.121 54.1667 523.121 54.6667 523.121 55.2C523.121 55.6 523.121 56 523.121 56.4C523.188 56.7333 523.254 57.1 523.321 57.5C523.321 57.7 523.321 57.9333 523.321 58.2C523.388 58.4 523.421 58.6 523.421 58.8C523.354 59.4 523.388 60 523.521 60.6C523.654 61.2 523.754 61.8 523.821 62.4L524.421 65C524.488 65.2667 524.554 65.5667 524.621 65.9C524.688 66.1667 524.754 66.4667 524.821 66.8C524.888 67.0667 524.888 67.3333 524.821 67.6C524.821 67.8 524.788 68.0333 524.721 68.3C524.721 68.3667 524.654 68.4667 524.521 68.6C524.188 68.6667 523.954 68.9 523.821 69.3C523.621 69.7667 523.321 70.1667 522.921 70.5C522.588 70.9 522.221 71.2667 521.821 71.6C521.754 71.6667 521.621 71.7333 521.421 71.8C521.221 71.8667 521.054 71.9333 520.921 72ZM524.821 37H525.021C525.754 36.8667 526.488 36.7333 527.221 36.6C528.021 36.4 528.788 36.1667 529.521 35.9C530.254 35.7 530.888 35.3333 531.421 34.8C531.888 34.3333 532.121 33.8 532.121 33.2C532.188 32.7333 532.188 32.3 532.121 31.9C532.121 31.4333 532.054 30.9667 531.921 30.5C531.654 29.3 531.354 28.1333 531.021 27C530.688 25.8 530.288 24.6667 529.821 23.6L528.921 21.2C528.721 20.5333 528.488 19.9 528.221 19.3C527.954 18.6333 527.654 18 527.321 17.4C527.254 17.2667 527.188 17.1333 527.121 17C527.054 16.8 526.988 16.6333 526.921 16.5L526.521 16.1C526.321 15.8333 526.088 15.8333 525.821 16.1C525.754 16.1 525.654 16.1667 525.521 16.3C525.054 16.9 524.621 17.5333 524.221 18.2C523.888 18.8667 523.688 19.6 523.621 20.4C523.554 20.6667 523.488 20.9333 523.421 21.2C523.421 21.4667 523.421 21.7667 523.421 22.1V26.4C523.354 27.3333 523.321 28.3 523.321 29.3C523.388 30.3 523.354 31.2667 523.221 32.2C523.154 32.4 523.121 32.6 523.121 32.8C523.188 33 523.221 33.2 523.221 33.4C523.288 33.8 523.321 34.2 523.321 34.6C523.321 34.9333 523.321 35.3 523.321 35.7C523.321 36.3667 523.388 36.7667 523.521 36.9C523.721 37.0333 524.154 37.0667 524.821 37Z" fill="white"/>
</svg>
